# Exported from Wings 3D 1.5.2
mtllib 42.mtl
o Cylinder2
#96 vertices, 188 faces
v 0.50000000 1.2685165e-17 0.11381552
v 0.48296291 -0.12940952 0.11381552
v 0.43301270 -0.25000000 0.11381552
v 0.35355339 -0.35355339 0.11381552
v 0.25000000 -0.43301270 0.11381552
v 0.12940952 -0.48296291 0.11381552
v 4.0345080e-17 -0.50000000 0.11381552
v -0.12940952 -0.48296291 0.11381552
v -0.25000000 -0.43301270 0.11381552
v -0.35355339 -0.35355339 0.11381552
v -0.43301270 -0.25000000 0.11381552
v -0.48296291 -0.12940952 0.11381552
v -0.50000000 -4.9764880e-17 0.11381552
v -0.48296291 0.12940952 0.11381552
v -0.43301270 0.25000000 0.11381552
v -0.35355339 0.35355339 0.11381552
v -0.25000000 0.43301270 0.11381552
v -0.12940952 0.48296291 0.11381552
v -8.2119600e-17 0.50000000 0.11381552
v 0.12940952 0.48296291 0.11381552
v 0.25000000 0.43301270 0.11381552
v 0.35355339 0.35355339 0.11381552
v 0.43301270 0.25000000 0.11381552
v 0.48296291 0.12940952 0.11381552
v 0.50000000 1.2685165e-17 9.0132573e-2
v 0.48296291 -0.12940952 9.0132573e-2
v 0.43301270 -0.25000000 9.0132573e-2
v 0.35355339 -0.35355339 9.0132573e-2
v 0.25000000 -0.43301270 9.0132573e-2
v 0.12940952 -0.48296291 9.0132573e-2
v 4.0345080e-17 -0.50000000 9.0132573e-2
v -0.12940952 -0.48296291 9.0132573e-2
v -0.25000000 -0.43301270 9.0132573e-2
v -0.35355339 -0.35355339 9.0132573e-2
v -0.43301270 -0.25000000 9.0132573e-2
v -0.48296291 -0.12940952 9.0132573e-2
v -0.50000000 -4.9764880e-17 9.0132573e-2
v -0.48296291 0.12940952 9.0132573e-2
v -0.43301270 0.25000000 9.0132573e-2
v -0.35355339 0.35355339 9.0132573e-2
v -0.25000000 0.43301270 9.0132573e-2
v -0.12940952 0.48296291 9.0132573e-2
v -8.2119600e-17 0.50000000 9.0132573e-2
v 0.12940952 0.48296291 9.0132573e-2
v 0.25000000 0.43301270 9.0132573e-2
v 0.35355339 0.35355339 9.0132573e-2
v 0.43301270 0.25000000 9.0132573e-2
v 0.48296291 0.12940952 9.0132573e-2
v 0.15879821 -4.2549851e-2 2.3683404e-2
v 0.16440000 -6.3642668e-17 2.3683404e-2
v 0.15879821 4.2549851e-2 2.3683404e-2
v 0.14237458 8.2200000e-2 2.3683404e-2
v 0.11624835 0.11624835 2.3683404e-2
v 8.2200000e-2 0.14237458 2.3683404e-2
v 4.2549851e-2 0.15879821 2.3683404e-2
v 6.3505193e-17 0.16440000 2.3683404e-2
v -4.2549851e-2 0.15879821 2.3683404e-2
v -8.2200000e-2 0.14237458 2.3683404e-2
v -0.11624835 0.11624835 2.3683404e-2
v -0.14237458 8.2200000e-2 2.3683404e-2
v -0.15879821 4.2549851e-2 2.3683404e-2
v -0.16440000 4.7379635e-17 2.3683404e-2
v -0.15879821 -4.2549851e-2 2.3683404e-2
v -0.14237458 -8.2200000e-2 2.3683404e-2
v -0.11624835 -0.11624835 2.3683404e-2
v -8.2200000e-2 -0.14237458 2.3683404e-2
v -4.2549851e-2 -0.15879821 2.3683404e-2
v -6.6306602e-18 -0.16440000 2.3683404e-2
v 4.2549851e-2 -0.15879821 2.3683404e-2
v 8.2200000e-2 -0.14237458 2.3683404e-2
v 0.11624835 -0.11624835 2.3683404e-2
v 0.14237458 -8.2200000e-2 2.3683404e-2
v 0.16440000 -7.0581561e-17 4.6003589e-7
v 0.15879821 -4.2549851e-2 4.6003589e-7
v 0.14237458 -8.2200000e-2 4.6003589e-7
v 0.11624835 -0.11624835 4.6003589e-7
v 8.2200000e-2 -0.14237458 4.6003589e-7
v 4.2549851e-2 -0.15879821 4.6003589e-7
v -6.6306602e-18 -0.16440000 4.6003589e-7
v -4.2549851e-2 -0.15879821 4.6003589e-7
v -8.2200000e-2 -0.14237458 4.6003589e-7
v -0.11624835 -0.11624835 4.6003589e-7
v -0.14237458 -8.2200000e-2 4.6003589e-7
v -0.15879821 -4.2549851e-2 4.6003589e-7
v -0.16440000 4.7379635e-17 4.6003589e-7
v -0.15879821 4.2549851e-2 4.6003589e-7
v -0.14237458 8.2200000e-2 4.6003589e-7
v -0.11624835 0.11624835 4.6003589e-7
v -8.2200000e-2 0.14237458 4.6003589e-7
v -4.2549851e-2 0.15879821 4.6003589e-7
v 6.3505193e-17 0.16440000 4.6003589e-7
v 4.2549851e-2 0.15879821 4.6003589e-7
v 8.2200000e-2 0.14237458 4.6003589e-7
v 0.11624835 0.11624835 4.6003589e-7
v 0.14237458 8.2200000e-2 4.6003589e-7
v 0.15879821 4.2549851e-2 4.6003589e-7
vn -0.12631913 3.3847110e-2 0.99141205
vn -0.20862453 1.9405712e-16 0.97799581
vn -0.10101415 -2.7066661e-2 0.99451674
vn -0.12941636 -7.4718571e-2 0.98877123
vn -7.3947493e-2 -7.3947493e-2 0.99451674
vn -7.4718571e-2 -0.12941636 0.98877123
vn -2.7066661e-2 -0.10101415 0.99451674
vn 4.4000808e-17 -0.14943714 0.98877123
vn 2.7066661e-2 -0.10101415 0.99451674
vn 7.4718571e-2 -0.12941636 0.98877123
vn 7.3947493e-2 -7.3947493e-2 0.99451674
vn 0.12941636 -7.4718571e-2 0.98877123
vn 0.12631913 -3.3847110e-2 0.99141205
vn 0.20862453 -1.5357038e-17 0.97799581
vn 0.10101415 2.7066661e-2 0.99451674
vn 0.12941636 7.4718571e-2 0.98877123
vn 7.3947493e-2 7.3947493e-2 0.99451674
vn 7.4718571e-2 0.12941636 0.98877123
vn 2.7066661e-2 0.10101415 0.99451674
vn -1.4100259e-16 0.14943714 0.98877123
vn -2.7066661e-2 0.10101415 0.99451674
vn -7.4718571e-2 0.12941636 0.98877123
vn -7.3947493e-2 7.3947493e-2 0.99451674
vn -0.12941636 7.4718571e-2 0.98877123
vn 0.17421569 6.2955033e-17 -0.98470752
vn 0.14434520 -3.8677179e-2 -0.98877123
vn 9.0566813e-2 -5.2288774e-2 -0.99451674
vn 0.10566802 -0.10566802 -0.98877123
vn 5.2288774e-2 -9.0566813e-2 -0.99451674
vn 3.8677179e-2 -0.14434520 -0.98877123
vn 1.3372887e-16 -0.10457755 -0.99451674
vn -3.8677179e-2 -0.14434520 -0.98877123
vn -5.2288774e-2 -9.0566813e-2 -0.99451674
vn -0.10566802 -0.10566802 -0.98877123
vn -9.0566813e-2 -5.2288774e-2 -0.99451674
vn -0.16827944 -4.5090340e-2 -0.98470752
vn -0.17421569 5.3628361e-17 -0.98470752
vn -0.14434520 3.8677179e-2 -0.98877123
vn -9.0566813e-2 5.2288774e-2 -0.99451674
vn -0.10566802 0.10566802 -0.98877123
vn -5.2288774e-2 9.0566813e-2 -0.99451674
vn -3.8677179e-2 0.14434520 -0.98877123
vn 1.7559062e-17 0.10457755 -0.99451674
vn 3.8677179e-2 0.14434520 -0.98877123
vn 5.2288774e-2 9.0566813e-2 -0.99451674
vn 0.10566802 0.10566802 -0.98877123
vn 9.0566813e-2 5.2288774e-2 -0.99451674
vn 0.16827944 4.5090340e-2 -0.98470752
vn 1.00000000 4.0592862e-16 0.0000000e+0
vn -0.25937845 -1.0414408e-16 0.96577576
vn 1.00000000 4.0592862e-16 0.0000000e+0
vn -0.25937845 -1.0414408e-16 0.96577576
vn 0.96592583 -0.25881905 0.0000000e+0
vn 0.96592583 -0.25881905 0.0000000e+0
vn -0.25054035 6.7132084e-2 0.96577576
vn -0.25054035 6.7132084e-2 0.96577576
vn -0.25054035 6.7132084e-2 0.96577576
vn -0.25054035 6.7132084e-2 0.96577576
vn 0.96592583 -0.25881905 0.0000000e+0
vn 0.96592583 -0.25881905 0.0000000e+0
vn 0.86602540 -0.50000000 0.0000000e+0
vn -0.22462833 0.12968923 0.96577576
vn -0.22462833 0.12968923 0.96577576
vn 0.86602540 -0.50000000 0.0000000e+0
vn 0.70710678 -0.70710678 0.0000000e+0
vn 0.70710678 -0.70710678 0.0000000e+0
vn -0.18340826 0.18340826 0.96577576
vn -0.18340826 0.18340826 0.96577576
vn 0.70710678 -0.70710678 0.0000000e+0
vn -0.18340826 0.18340826 0.96577576
vn -0.18340826 0.18340826 0.96577576
vn 0.70710678 -0.70710678 0.0000000e+0
vn -0.12968923 0.22462833 0.96577576
vn -0.12968923 0.22462833 0.96577576
vn 0.50000000 -0.86602540 0.0000000e+0
vn 0.50000000 -0.86602540 0.0000000e+0
vn 0.25881905 -0.96592583 0.0000000e+0
vn 0.25881905 -0.96592583 0.0000000e+0
vn -6.7132084e-2 0.25054035 0.96577576
vn -6.7132084e-2 0.25054035 0.96577576
vn -6.7132084e-2 0.25054035 0.96577576
vn -6.7132084e-2 0.25054035 0.96577576
vn 0.25881905 -0.96592583 0.0000000e+0
vn 0.25881905 -0.96592583 0.0000000e+0
vn -1.0067261e-16 0.25937845 0.96577576
vn -1.0067261e-16 0.25937845 0.96577576
vn 3.7793354e-16 -1.00000000 0.0000000e+0
vn 3.7793354e-16 -1.00000000 0.0000000e+0
vn -0.25881905 -0.96592583 0.0000000e+0
vn -0.25881905 -0.96592583 0.0000000e+0
vn 6.7132084e-2 0.25054035 0.96577576
vn 6.7132084e-2 0.25054035 0.96577576
vn 6.7132084e-2 0.25054035 0.96577576
vn 6.7132084e-2 0.25054035 0.96577576
vn -0.25881905 -0.96592583 0.0000000e+0
vn -0.25881905 -0.96592583 0.0000000e+0
vn 0.12968923 0.22462833 0.96577576
vn 0.12968923 0.22462833 0.96577576
vn -0.50000000 -0.86602540 0.0000000e+0
vn -0.50000000 -0.86602540 0.0000000e+0
vn -0.70710678 -0.70710678 0.0000000e+0
vn -0.70710678 -0.70710678 0.0000000e+0
vn 0.18340826 0.18340826 0.96577576
vn 0.18340826 0.18340826 0.96577576
vn 0.18340826 0.18340826 0.96577576
vn 0.18340826 0.18340826 0.96577576
vn -0.70710678 -0.70710678 0.0000000e+0
vn -0.70710678 -0.70710678 0.0000000e+0
vn 0.22462833 0.12968923 0.96577576
vn 0.22462833 0.12968923 0.96577576
vn -0.86602540 -0.50000000 0.0000000e+0
vn -0.86602540 -0.50000000 0.0000000e+0
vn -0.96592583 -0.25881905 0.0000000e+0
vn -0.96592583 -0.25881905 0.0000000e+0
vn 0.25054035 6.7132084e-2 0.96577576
vn 0.25054035 6.7132084e-2 0.96577576
vn 0.25054035 6.7132084e-2 0.96577576
vn 0.25054035 6.7132084e-2 0.96577576
vn -0.96592583 -0.25881905 0.0000000e+0
vn -0.96592583 -0.25881905 0.0000000e+0
vn 0.25937845 2.7771753e-16 0.96577576
vn 0.25937845 2.7771753e-16 0.96577576
vn -1.00000000 -4.0592862e-16 0.0000000e+0
vn -1.00000000 -4.0592862e-16 0.0000000e+0
vn -0.96592583 0.25881905 0.0000000e+0
vn -0.96592583 0.25881905 0.0000000e+0
vn 0.25054035 -6.7132084e-2 0.96577576
vn 0.25054035 -6.7132084e-2 0.96577576
vn 0.25054035 -6.7132084e-2 0.96577576
vn 0.25054035 -6.7132084e-2 0.96577576
vn -0.96592583 0.25881905 0.0000000e+0
vn -0.96592583 0.25881905 0.0000000e+0
vn 0.22462833 -0.12968923 0.96577576
vn 0.22462833 -0.12968923 0.96577576
vn -0.86602540 0.50000000 0.0000000e+0
vn -0.86602540 0.50000000 0.0000000e+0
vn -0.70710678 0.70710678 0.0000000e+0
vn -0.70710678 0.70710678 0.0000000e+0
vn 0.18340826 -0.18340826 0.96577576
vn 0.18340826 -0.18340826 0.96577576
vn 0.18340826 -0.18340826 0.96577576
vn 0.18340826 -0.18340826 0.96577576
vn -0.70710678 0.70710678 0.0000000e+0
vn -0.70710678 0.70710678 0.0000000e+0
vn 0.12968923 -0.22462833 0.96577576
vn 0.12968923 -0.22462833 0.96577576
vn -0.50000000 0.86602540 0.0000000e+0
vn -0.50000000 0.86602540 0.0000000e+0
vn -0.25881905 0.96592583 0.0000000e+0
vn -0.25881905 0.96592583 0.0000000e+0
vn 6.7132084e-2 -0.25054035 0.96577576
vn 6.7132084e-2 -0.25054035 0.96577576
vn 6.7132084e-2 -0.25054035 0.96577576
vn 6.7132084e-2 -0.25054035 0.96577576
vn -0.25881905 0.96592583 0.0000000e+0
vn -0.25881905 0.96592583 0.0000000e+0
vn 6.2486445e-17 -0.25937845 0.96577576
vn 6.2486445e-17 -0.25937845 0.96577576
vn -1.9596554e-16 1.00000000 0.0000000e+0
vn -1.9596554e-16 1.00000000 0.0000000e+0
vn 0.25881905 0.96592583 0.0000000e+0
vn 0.25881905 0.96592583 0.0000000e+0
vn -6.7132084e-2 -0.25054035 0.96577576
vn -6.7132084e-2 -0.25054035 0.96577576
vn -6.7132084e-2 -0.25054035 0.96577576
vn -6.7132084e-2 -0.25054035 0.96577576
vn 0.25881905 0.96592583 0.0000000e+0
vn 0.25881905 0.96592583 0.0000000e+0
vn -0.12968923 -0.22462833 0.96577576
vn -0.12968923 -0.22462833 0.96577576
vn 0.50000000 0.86602540 0.0000000e+0
vn 0.50000000 0.86602540 0.0000000e+0
vn 0.70710678 0.70710678 0.0000000e+0
vn 0.70710678 0.70710678 0.0000000e+0
vn -0.18340826 -0.18340826 0.96577576
vn -0.18340826 -0.18340826 0.96577576
vn -0.18340826 -0.18340826 0.96577576
vn -0.18340826 -0.18340826 0.96577576
vn 0.70710678 0.70710678 0.0000000e+0
vn 0.70710678 0.70710678 0.0000000e+0
vn -0.22462833 -0.12968923 0.96577576
vn 0.86602540 0.50000000 0.0000000e+0
vn -0.22462833 -0.12968923 0.96577576
vn 0.86602540 0.50000000 0.0000000e+0
vn 0.96592583 0.25881905 0.0000000e+0
vn 0.96592583 0.25881905 0.0000000e+0
vn -0.25054035 -6.7132084e-2 0.96577576
vn -0.25054035 -6.7132084e-2 0.96577576
vn 0.96592583 0.25881905 0.0000000e+0
vn -0.25054035 -6.7132084e-2 0.96577576
vn 0.96592583 0.25881905 0.0000000e+0
vn -0.25054035 -6.7132084e-2 0.96577576
vn 1.00000000 1.6097169e-16 0.0000000e+0
vn 1.00000000 1.7496923e-16 0.0000000e+0
vn 0.25937845 1.9093080e-17 -0.96577576
vn 0.25937845 2.0828815e-17 -0.96577576
vn 1.00000000 1.6097169e-16 0.0000000e+0
vn 0.25937845 2.0828815e-17 -0.96577576
vn 0.25937845 1.9093080e-17 -0.96577576
vn 1.00000000 1.7496923e-16 0.0000000e+0
vn 0.96592583 -0.25881905 0.0000000e+0
vn 0.96592583 -0.25881905 0.0000000e+0
vn 0.25054035 -6.7132084e-2 -0.96577576
vn 0.25054035 -6.7132084e-2 -0.96577576
vn 0.86602540 -0.50000000 0.0000000e+0
vn 0.86602540 -0.50000000 0.0000000e+0
vn 0.22462833 -0.12968923 -0.96577576
vn 0.22462833 -0.12968923 -0.96577576
vn 0.22462833 -0.12968923 -0.96577576
vn 0.22462833 -0.12968923 -0.96577576
vn 0.86602540 -0.50000000 0.0000000e+0
vn 0.86602540 -0.50000000 0.0000000e+0
vn 0.70710678 -0.70710678 0.0000000e+0
vn 0.70710678 -0.70710678 0.0000000e+0
vn 0.18340826 -0.18340826 -0.96577576
vn 0.18340826 -0.18340826 -0.96577576
vn 0.50000000 -0.86602540 0.0000000e+0
vn 0.50000000 -0.86602540 0.0000000e+0
vn 0.12968923 -0.22462833 -0.96577576
vn 0.12968923 -0.22462833 -0.96577576
vn 0.12968923 -0.22462833 -0.96577576
vn 0.12968923 -0.22462833 -0.96577576
vn 0.50000000 -0.86602540 0.0000000e+0
vn 0.50000000 -0.86602540 0.0000000e+0
vn 0.25881905 -0.96592583 0.0000000e+0
vn 0.25881905 -0.96592583 0.0000000e+0
vn 6.7132084e-2 -0.25054035 -0.96577576
vn 6.7132084e-2 -0.25054035 -0.96577576
vn 3.7093478e-16 -1.00000000 0.0000000e+0
vn 3.6393601e-16 -1.00000000 0.0000000e+0
vn 2.0308095e-16 -0.25937845 -0.96577576
vn 2.0481668e-16 -0.25937845 -0.96577576
vn 2.0481668e-16 -0.25937845 -0.96577576
vn 2.0308095e-16 -0.25937845 -0.96577576
vn 3.7093478e-16 -1.00000000 0.0000000e+0
vn 3.7093478e-16 -1.00000000 0.0000000e+0
vn -0.25881905 -0.96592583 0.0000000e+0
vn -0.25881905 -0.96592583 0.0000000e+0
vn -6.7132084e-2 -0.25054035 -0.96577576
vn -6.7132084e-2 -0.25054035 -0.96577576
vn -0.50000000 -0.86602540 0.0000000e+0
vn -0.50000000 -0.86602540 0.0000000e+0
vn -0.12968923 -0.22462833 -0.96577576
vn -0.12968923 -0.22462833 -0.96577576
vn -0.12968923 -0.22462833 -0.96577576
vn -0.12968923 -0.22462833 -0.96577576
vn -0.50000000 -0.86602540 0.0000000e+0
vn -0.50000000 -0.86602540 0.0000000e+0
vn -0.70710678 -0.70710678 0.0000000e+0
vn -0.70710678 -0.70710678 0.0000000e+0
vn -0.18340826 -0.18340826 -0.96577576
vn -0.18340826 -0.18340826 -0.96577576
vn -0.86602540 -0.50000000 0.0000000e+0
vn -0.86602540 -0.50000000 0.0000000e+0
vn -0.22462833 -0.12968923 -0.96577576
vn -0.22462833 -0.12968923 -0.96577576
vn -0.22462833 -0.12968923 -0.96577576
vn -0.22462833 -0.12968923 -0.96577576
vn -0.86602540 -0.50000000 0.0000000e+0
vn -0.86602540 -0.50000000 0.0000000e+0
vn -0.96592583 -0.25881905 0.0000000e+0
vn -0.96592583 -0.25881905 0.0000000e+0
vn -0.25054035 -6.7132084e-2 -0.96577576
vn -0.25054035 -6.7132084e-2 -0.96577576
vn -1.00000000 -4.0592862e-16 0.0000000e+0
vn -1.00000000 -4.0592862e-16 0.0000000e+0
vn -0.25937845 1.3885877e-17 -0.96577576
vn -0.25937845 1.3885877e-17 -0.96577576
vn -0.25937845 1.3885877e-17 -0.96577576
vn -0.25937845 1.3885877e-17 -0.96577576
vn -1.00000000 -4.0592862e-16 0.0000000e+0
vn -1.00000000 -4.0592862e-16 0.0000000e+0
vn -0.96592583 0.25881905 0.0000000e+0
vn -0.96592583 0.25881905 0.0000000e+0
vn -0.25054035 6.7132084e-2 -0.96577576
vn -0.25054035 6.7132084e-2 -0.96577576
vn -0.86602540 0.50000000 0.0000000e+0
vn -0.86602540 0.50000000 0.0000000e+0
vn -0.22462833 0.12968923 -0.96577576
vn -0.22462833 0.12968923 -0.96577576
vn -0.22462833 0.12968923 -0.96577576
vn -0.22462833 0.12968923 -0.96577576
vn -0.86602540 0.50000000 0.0000000e+0
vn -0.86602540 0.50000000 0.0000000e+0
vn -0.70710678 0.70710678 0.0000000e+0
vn -0.70710678 0.70710678 0.0000000e+0
vn -0.18340826 0.18340826 -0.96577576
vn -0.18340826 0.18340826 -0.96577576
vn -0.50000000 0.86602540 0.0000000e+0
vn -0.50000000 0.86602540 0.0000000e+0
vn -0.12968923 0.22462833 -0.96577576
vn -0.12968923 0.22462833 -0.96577576
vn -0.12968923 0.22462833 -0.96577576
vn -0.12968923 0.22462833 -0.96577576
vn -0.50000000 0.86602540 0.0000000e+0
vn -0.50000000 0.86602540 0.0000000e+0
vn -0.25881905 0.96592583 0.0000000e+0
vn -0.25881905 0.96592583 0.0000000e+0
vn -6.7132084e-2 0.25054035 -0.96577576
vn -6.7132084e-2 0.25054035 -0.96577576
vn -1.9596554e-16 1.00000000 0.0000000e+0
vn -2.0296431e-16 1.00000000 0.0000000e+0
vn -2.7771753e-17 0.25937845 -0.96577576
vn -2.7771753e-17 0.25937845 -0.96577576
vn -2.7771753e-17 0.25937845 -0.96577576
vn -2.7771753e-17 0.25937845 -0.96577576
vn -1.9596554e-16 1.00000000 0.0000000e+0
vn -2.0296431e-16 1.00000000 0.0000000e+0
vn 0.25881905 0.96592583 0.0000000e+0
vn 0.25881905 0.96592583 0.0000000e+0
vn 6.7132084e-2 0.25054035 -0.96577576
vn 6.7132084e-2 0.25054035 -0.96577576
vn 0.50000000 0.86602540 0.0000000e+0
vn 0.50000000 0.86602540 0.0000000e+0
vn 0.12968923 0.22462833 -0.96577576
vn 0.12968923 0.22462833 -0.96577576
vn 0.12968923 0.22462833 -0.96577576
vn 0.12968923 0.22462833 -0.96577576
vn 0.50000000 0.86602540 0.0000000e+0
vn 0.50000000 0.86602540 0.0000000e+0
vn 0.70710678 0.70710678 0.0000000e+0
vn 0.70710678 0.70710678 0.0000000e+0
vn 0.18340826 0.18340826 -0.96577576
vn 0.18340826 0.18340826 -0.96577576
vn 0.86602540 0.50000000 0.0000000e+0
vn 0.86602540 0.50000000 0.0000000e+0
vn 0.22462833 0.12968923 -0.96577576
vn 0.22462833 0.12968923 -0.96577576
vn 0.22462833 0.12968923 -0.96577576
vn 0.22462833 0.12968923 -0.96577576
vn 0.86602540 0.50000000 0.0000000e+0
vn 0.86602540 0.50000000 0.0000000e+0
vn 0.96592583 0.25881905 0.0000000e+0
vn 0.96592583 0.25881905 0.0000000e+0
vn 0.25054035 6.7132084e-2 -0.96577576
vn 0.25054035 6.7132084e-2 -0.96577576
g Cylinder2_GOLD
usemtl GOLD
s 1
f 1//50 50//2 2//58
f 2//57 72//24 3//63
f 3//62 72//24 4//71
f 4//70 70//22 5//73
f 5//74 70//22 6//81
f 6//82 68//20 7//85
f 7//86 68//20 8//93
f 8//94 66//18 9//97
f 9//98 66//18 10//105
f 10//106 64//16 11//109
f 11//110 64//16 12//117
f 12//118 62//14 13//121
f 13//122 62//14 14//129
f 14//130 60//12 15//133
f 15//134 60//12 16//141
f 16//142 58//10 17//145
f 17//146 58//10 18//153
f 18//154 56//8 19//157
f 19//158 56//8 20//165
f 20//166 54//6 21//169
f 21//170 54//6 22//177
f 22//178 52//4 23//181
f 23//183 52//4 24//190
f 24//192 50//2 1//52
f 25//198 96//48 48//335
f 26//204 74//26 25//199
f 27//210 74//26 26//203
f 28//216 76//28 27//209
f 29//222 76//28 28//215
f 30//228 78//30 29//221
f 31//234 78//30 30//227
f 32//240 80//32 31//233
f 33//246 80//32 32//239
f 34//252 82//34 33//245
f 35//258 82//34 34//251
f 36//264 84//36 35//257
f 37//270 84//36 36//263
f 38//276 86//38 37//269
f 39//282 86//38 38//275
f 40//288 88//40 39//281
f 41//294 88//40 40//287
f 42//300 90//42 41//293
f 43//306 90//42 42//299
f 44//312 92//44 43//305
f 45//318 92//44 44//311
f 46//324 94//46 45//317
f 47//330 94//46 46//323
f 48//336 96//48 47//329
f 49//1 2//55 50//2
f 49//1 51//3 72//24
f 49//1 72//24 2//56
f 50//2 24//187 51//3
f 50//2 51//3 49//1
f 51//3 24//188 52//4
f 52//4 22//175 53//5
f 52//4 72//24 51//3
f 53//5 22//176 54//6
f 53//5 71//23 52//4
f 54//6 20//163 55//7
f 54//6 70//22 53//5
f 55//7 20//164 56//8
f 55//7 69//21 54//6
f 56//8 18//151 57//9
f 56//8 68//20 55//7
f 57//9 18//152 58//10
f 57//9 67//19 56//8
f 58//10 16//139 59//11
f 58//10 66//18 57//9
f 59//11 16//140 60//12
f 59//11 65//17 58//10
f 60//12 14//127 61//13
f 60//12 64//16 59//11
f 61//13 14//128 62//14
f 61//13 63//15 60//12
f 62//14 12//115 63//15
f 62//14 63//15 61//13
f 63//15 12//116 64//16
f 64//16 10//103 65//17
f 64//16 60//12 63//15
f 65//17 10//104 66//18
f 65//17 59//11 64//16
f 66//18 8//91 67//19
f 66//18 58//10 65//17
f 67//19 8//92 68//20
f 67//19 57//9 66//18
f 68//20 6//79 69//21
f 68//20 56//8 67//19
f 69//21 6//80 70//22
f 69//21 55//7 68//20
f 70//22 4//67 71//23
f 70//22 54//6 69//21
f 71//23 4//68 72//24
f 71//23 53//5 70//22
f 72//24 52//4 71//23
f 73//25 25//195 74//26
f 73//25 96//48 25//196
f 74//26 27//207 75//27
f 74//26 96//48 73//25
f 75//27 27//208 76//28
f 75//27 95//47 74//26
f 76//28 29//219 77//29
f 76//28 94//46 75//27
f 77//29 29//220 78//30
f 77//29 93//45 76//28
f 78//30 31//231 79//31
f 78//30 92//44 77//29
f 79//31 31//232 80//32
f 79//31 91//43 78//30
f 80//32 33//243 81//33
f 80//32 90//42 79//31
f 81//33 33//244 82//34
f 81//33 89//41 80//32
f 82//34 35//255 83//35
f 82//34 88//40 81//33
f 83//35 35//256 84//36
f 83//35 87//39 82//34
f 84//36 37//267 85//37
f 84//36 86//38 83//35
f 85//37 37//268 86//38
f 85//37 86//38 84//36
f 86//38 39//279 87//39
f 87//39 39//280 88//40
f 87//39 83//35 86//38
f 88//40 41//291 89//41
f 88//40 82//34 87//39
f 89//41 41//292 90//42
f 89//41 81//33 88//40
f 90//42 43//303 91//43
f 90//42 80//32 89//41
f 91//43 43//304 92//44
f 91//43 79//31 90//42
f 92//44 45//315 93//45
f 92//44 78//30 91//43
f 93//45 45//316 94//46
f 93//45 77//29 92//44
f 94//46 47//327 95//47
f 94//46 76//28 93//45
f 95//47 47//328 96//48
f 95//47 75//27 94//46
f 96//48 74//26 95//47
s 2
f 1//49 25//197 24//189
f 2//60 25//200 1//51
f 2//53 27//206 26//201
f 3//64 27//212 2//59
f 4//69 27//211 3//61
f 4//65 29//218 28//213
f 5//76 29//224 4//72
f 6//83 29//223 5//75
f 6//77 31//230 30//225
f 7//88 31//236 6//84
f 8//95 31//235 7//87
f 8//89 33//242 32//237
f 9//100 33//248 8//96
f 10//107 33//247 9//99
f 10//101 35//254 34//249
f 11//112 35//260 10//108
f 12//119 35//259 11//111
f 12//113 37//266 36//261
f 13//124 37//272 12//120
f 14//131 37//271 13//123
f 14//125 39//278 38//273
f 15//136 39//284 14//132
f 16//143 39//283 15//135
f 16//137 41//290 40//285
f 17//148 41//296 16//144
f 18//155 41//295 17//147
f 18//149 43//302 42//297
f 19//160 43//308 18//156
f 20//167 43//307 19//159
f 20//161 45//314 44//309
f 21//172 45//320 20//168
f 22//179 45//319 21//171
f 22//173 47//326 46//321
f 23//182 47//331 22//180
f 24//185 25//193 48//333
f 24//191 47//332 23//184
f 26//202 25//194 2//54
f 28//214 27//205 4//66
f 30//226 29//217 6//78
f 32//238 31//229 8//90
f 34//250 33//241 10//102
f 36//262 35//253 12//114
f 38//274 37//265 14//126
f 40//286 39//277 16//138
f 42//298 41//289 18//150
f 44//310 43//301 20//162
f 46//322 45//313 22//174
f 48//334 47//325 24//186
