# Nv = 48  Nvt = 0  Nvn = 276  Npoly = 92
# Exported from Wings 3D 1.5.3
mtllib Dellingr.mtl
o Dellingr_simplified_stp
#48 vertices, 92 faces
v -0.10753090 -6.3914160e-3 -0.54991542
v -8.7210899e-2 -6.3914160e-3 -0.54991542
v -8.7210899e-2 -6.3914160e-3 -5.4500000e-6
v -0.10753090 -6.3914160e-3 -5.4500000e-6
v -0.10753090 5.0385840e-3 -5.4500000e-6
v -0.11959590 -6.5438160e-3 -5.4500000e-6
v 0.11959590 0.10656238 -5.4500000e-6
v -8.7210899e-2 5.0385840e-3 -5.4500000e-6
v -0.11959590 0.10656238 -5.4500000e-6
v 0.11959590 -6.5438160e-3 -5.4500000e-6
v 6.5179039e-2 -0.13656641 4.4609651e-2
v 6.5179039e-2 -6.5438160e-3 4.4270845e-2
v 6.5179039e-2 -6.5438160e-3 4.4609651e-2
v 6.5179039e-2 -0.13656641 4.4270845e-2
v 0.24991959 5.0485535e-2 4.0523298e-2
v 0.11959590 7.4298031e-2 4.0523298e-2
v 0.11959590 5.0485535e-2 4.0523298e-2
v 0.24991959 7.4298031e-2 4.0523298e-2
v 0.24991959 7.4298031e-2 4.0184495e-2
v 0.24991959 5.0485535e-2 4.0184495e-2
v 0.11959590 5.0485535e-2 4.0184495e-2
v 0.11959590 7.4298031e-2 4.0184495e-2
v -0.11959590 0.10656238 0.36346855
v -0.11959590 -6.5438160e-3 0.36346855
v 0.11959590 -6.5438160e-3 0.36346855
v 0.11959590 0.10656238 0.36346855
v -0.24962221 7.4298031e-2 4.0523298e-2
v -0.24962221 5.0485535e-2 4.0523298e-2
v -0.11959590 5.0485535e-2 4.0523298e-2
v -0.11959590 7.4298031e-2 4.0523298e-2
v -0.24962221 7.4298031e-2 4.0184495e-2
v -0.11959590 7.4298031e-2 4.0184495e-2
v -0.24962221 5.0485535e-2 4.0184495e-2
v -0.11959590 5.0485535e-2 4.0184495e-2
v -4.6517460e-2 0.23589918 4.4270845e-2
v -4.6517460e-2 0.10656238 4.4270845e-2
v -7.0329956e-2 0.23589918 4.4270845e-2
v -7.0329956e-2 0.10656238 4.4270845e-2
v -0.10753090 5.0385840e-3 -0.54991542
v -8.7210899e-2 5.0385840e-3 -0.54991542
v -4.6517460e-2 0.23589918 4.4609651e-2
v -7.0329956e-2 0.23589918 4.4609651e-2
v 4.1366543e-2 -6.5438160e-3 4.4270845e-2
v 4.1366543e-2 -0.13656641 4.4270845e-2
v 4.1366543e-2 -6.5438160e-3 4.4609651e-2
v 4.1366543e-2 -0.13656641 4.4609651e-2
v -4.6517460e-2 0.10656238 4.4609651e-2
v -7.0329956e-2 0.10656238 4.4609651e-2
vn 0.0000000e+0 -1.00000000 6.3067894e-17
vn 0.0000000e+0 -1.00000000 6.3067894e-17
vn 0.0000000e+0 0.0000000e+0 -1.00000000
vn 0.0000000e+0 0.0000000e+0 -1.00000000
vn -1.00000000 0.0000000e+0 0.0000000e+0
vn 0.0000000e+0 -1.00000000 6.3067894e-17
vn 0.0000000e+0 0.0000000e+0 -1.00000000
vn 1.00000000 0.0000000e+0 0.0000000e+0
vn 1.00000000 0.0000000e+0 0.0000000e+0
vn 0.0000000e+0 -1.00000000 6.3067894e-17
vn 0.0000000e+0 -1.00000000 6.3067894e-17
vn -8.4097933e-18 -1.5337121e-17 -1.00000000
vn -8.4097933e-18 -1.5337121e-17 -1.00000000
vn -8.4097933e-18 -1.5337121e-17 -1.00000000
vn -8.4097933e-18 -1.5337121e-17 -1.00000000
vn 1.00000000 0.0000000e+0 0.0000000e+0
vn 0.0000000e+0 -1.00000000 6.3067894e-17
vn 9.5972476e-20 0.0000000e+0 -1.00000000
vn 9.5972476e-20 0.0000000e+0 -1.00000000
vn -1.00000000 0.0000000e+0 0.0000000e+0
vn -1.00000000 0.0000000e+0 0.0000000e+0
vn 1.4760677e-17 -4.9510852e-17 -1.00000000
vn 1.4760677e-17 -4.9510852e-17 -1.00000000
vn 1.4760677e-17 -4.9510852e-17 -1.00000000
vn 1.4760677e-17 -4.9510852e-17 -1.00000000
vn 0.0000000e+0 1.00000000 -6.3067894e-17
vn 0.0000000e+0 1.00000000 -6.3067894e-17
vn -1.00000000 0.0000000e+0 0.0000000e+0
vn 1.4760677e-17 -1.5337121e-17 -1.00000000
vn 1.4760677e-17 -1.5337121e-17 -1.00000000
vn 1.4760677e-17 -1.5337121e-17 -1.00000000
vn 1.4760677e-17 -1.5337121e-17 -1.00000000
vn -1.00000000 -1.5218959e-16 0.0000000e+0
vn -1.00000000 -1.5218959e-16 0.0000000e+0
vn -3.8831646e-18 -1.00000000 2.6478033e-17
vn -3.8831646e-18 -1.00000000 2.6478033e-17
vn -3.8831646e-18 -1.00000000 2.6478033e-17
vn -3.8831646e-18 -1.00000000 2.6478033e-17
vn -3.8831646e-18 -1.00000000 2.6478033e-17
vn -8.4097933e-18 -4.9510852e-17 -1.00000000
vn -8.4097933e-18 -4.9510852e-17 -1.00000000
vn -8.4097933e-18 -4.9510852e-17 -1.00000000
vn -8.4097933e-18 -4.9510852e-17 -1.00000000
vn 1.00000000 4.3551807e-16 0.0000000e+0
vn 1.00000000 4.3551807e-16 0.0000000e+0
vn -4.9825365e-18 1.00000000 -1.3601492e-15
vn -4.9825365e-18 1.00000000 -1.3601492e-15
vn -4.9825365e-18 1.00000000 -1.3601492e-15
vn -4.9825365e-18 1.00000000 -1.3601492e-15
vn -4.9825365e-18 1.00000000 -1.3601492e-15
vn -1.6796954e-17 -3.4173731e-17 -1.00000000
vn -1.6796954e-17 -3.4173731e-17 -1.00000000
vn 0.0000000e+0 1.00000000 -6.3067894e-17
vn 1.00000000 0.0000000e+0 0.0000000e+0
vn 1.00000000 0.0000000e+0 0.0000000e+0
vn 2.9425382e-17 -6.4847973e-17 -1.00000000
vn 2.9425382e-17 -6.4847973e-17 -1.00000000
vn -1.00000000 9.9057950e-17 0.0000000e+0
vn -1.00000000 9.9057950e-17 0.0000000e+0
vn -1.00000000 9.9057950e-17 0.0000000e+0
vn -1.00000000 9.9057950e-17 0.0000000e+0
vn -1.00000000 9.9057950e-17 0.0000000e+0
vn 3.4314000e-17 1.00000000 -4.8437319e-17
vn 3.4314000e-17 1.00000000 -4.8437319e-17
vn -2.2632321e-20 -3.0674243e-17 -1.00000000
vn -2.2632321e-20 -3.0674243e-17 -1.00000000
vn 1.00000000 -1.3223837e-16 0.0000000e+0
vn 1.00000000 -1.3223837e-16 0.0000000e+0
vn 1.00000000 -1.3223837e-16 0.0000000e+0
vn 1.00000000 -1.3223837e-16 0.0000000e+0
vn 1.00000000 -1.3223837e-16 0.0000000e+0
vn 2.3299464e-17 -1.00000000 2.7407753e-17
vn 2.3299464e-17 -1.00000000 2.7407753e-17
vn 1.00000000 0.0000000e+0 0.0000000e+0
vn 1.00000000 0.0000000e+0 0.0000000e+0
vn 0.0000000e+0 -1.00000000 0.0000000e+0
vn 0.0000000e+0 5.3366832e-17 1.00000000
vn 1.00000000 0.0000000e+0 0.0000000e+0
vn 1.00000000 0.0000000e+0 0.0000000e+0
vn 0.0000000e+0 -5.3366832e-17 -1.00000000
vn 1.0728499e-16 -1.00000000 1.3703877e-17
vn 1.0728499e-16 -1.00000000 1.3703877e-17
vn 1.0728499e-16 -1.00000000 1.3703877e-17
vn 1.0728499e-16 -1.00000000 1.3703877e-17
vn 1.00000000 0.0000000e+0 0.0000000e+0
vn 1.9127051e-16 -1.00000000 3.5698241e-17
vn 1.9127051e-16 -1.00000000 3.5698241e-17
vn 0.0000000e+0 5.3366832e-17 1.00000000
vn 0.0000000e+0 5.3366832e-17 1.00000000
vn 1.00000000 0.0000000e+0 0.0000000e+0
vn 0.0000000e+0 -5.3366832e-17 -1.00000000
vn 0.0000000e+0 -5.3366832e-17 -1.00000000
vn 0.0000000e+0 -1.00000000 0.0000000e+0
vn 0.0000000e+0 -1.00000000 0.0000000e+0
vn 0.0000000e+0 2.9139717e-16 1.00000000
vn 0.0000000e+0 2.9139717e-16 1.00000000
vn 0.0000000e+0 -1.00000000 0.0000000e+0
vn 1.00000000 6.9162351e-17 0.0000000e+0
vn 1.00000000 6.9162351e-17 0.0000000e+0
vn 0.0000000e+0 2.9139717e-16 1.00000000
vn 0.0000000e+0 2.9139717e-16 1.00000000
vn 1.00000000 2.5875040e-15 0.0000000e+0
vn 1.00000000 2.5875040e-15 0.0000000e+0
vn 0.0000000e+0 1.00000000 0.0000000e+0
vn 0.0000000e+0 2.9139717e-16 1.00000000
vn 0.0000000e+0 -1.00000000 0.0000000e+0
vn 0.0000000e+0 -1.00000000 0.0000000e+0
vn 1.00000000 -1.4295602e-16 0.0000000e+0
vn 1.00000000 -1.4295602e-16 0.0000000e+0
vn 1.00000000 -1.4295602e-16 0.0000000e+0
vn 0.0000000e+0 2.9139717e-16 1.00000000
vn 1.00000000 1.3832470e-16 0.0000000e+0
vn 0.0000000e+0 1.00000000 0.0000000e+0
vn 0.0000000e+0 1.00000000 0.0000000e+0
vn 0.0000000e+0 -2.9139717e-16 -1.00000000
vn 0.0000000e+0 -2.9139717e-16 -1.00000000
vn 1.00000000 6.9162351e-17 0.0000000e+0
vn 1.00000000 6.9162351e-17 0.0000000e+0
vn 0.0000000e+0 1.00000000 0.0000000e+0
vn 0.0000000e+0 -2.9139717e-16 -1.00000000
vn 0.0000000e+0 -1.00000000 0.0000000e+0
vn 0.0000000e+0 -1.00000000 0.0000000e+0
vn 1.00000000 0.0000000e+0 0.0000000e+0
vn 0.0000000e+0 -2.9139717e-16 -1.00000000
vn 0.0000000e+0 -2.9139717e-16 -1.00000000
vn 0.0000000e+0 -1.00000000 0.0000000e+0
vn 1.00000000 0.0000000e+0 0.0000000e+0
vn 1.00000000 0.0000000e+0 0.0000000e+0
vn 0.0000000e+0 -2.9139717e-16 -1.00000000
vn 1.00000000 1.4575547e-15 0.0000000e+0
vn 1.00000000 1.4575547e-15 0.0000000e+0
vn 1.00000000 1.4575547e-15 0.0000000e+0
vn 1.00000000 1.4575547e-15 0.0000000e+0
vn 0.0000000e+0 1.00000000 0.0000000e+0
vn 0.0000000e+0 1.00000000 0.0000000e+0
vn 0.0000000e+0 0.0000000e+0 1.00000000
vn 0.0000000e+0 0.0000000e+0 1.00000000
vn -1.00000000 0.0000000e+0 0.0000000e+0
vn 1.2141958e-16 1.00000000 -1.7563231e-17
vn 1.2141958e-16 1.00000000 -1.7563231e-17
vn 1.2141958e-16 1.00000000 -1.7563231e-17
vn 1.2141958e-16 1.00000000 -1.7563231e-17
vn 1.2141958e-16 1.00000000 -1.7563231e-17
vn 0.0000000e+0 0.0000000e+0 1.00000000
vn -1.00000000 2.5466006e-16 0.0000000e+0
vn -1.00000000 2.5466006e-16 0.0000000e+0
vn -1.00000000 2.5466006e-16 0.0000000e+0
vn -1.00000000 2.5466006e-16 0.0000000e+0
vn -1.00000000 2.5466006e-16 0.0000000e+0
vn 0.0000000e+0 -1.00000000 5.9859333e-17
vn 0.0000000e+0 0.0000000e+0 1.00000000
vn 0.0000000e+0 0.0000000e+0 1.00000000
vn 1.00000000 0.0000000e+0 0.0000000e+0
vn 8.1944824e-17 -1.00000000 5.1720431e-17
vn 8.1944824e-17 -1.00000000 5.1720431e-17
vn 8.1944824e-17 -1.00000000 5.1720431e-17
vn 8.1944824e-17 -1.00000000 5.1720431e-17
vn 8.1944824e-17 -1.00000000 5.1720431e-17
vn 0.0000000e+0 0.0000000e+0 1.00000000
vn 1.00000000 1.0835698e-15 0.0000000e+0
vn 1.00000000 1.0835698e-15 0.0000000e+0
vn 1.00000000 1.0835698e-15 0.0000000e+0
vn 1.00000000 1.0835698e-15 0.0000000e+0
vn 1.00000000 1.0835698e-15 0.0000000e+0
vn 0.0000000e+0 1.00000000 -7.9812444e-17
vn 0.0000000e+0 2.9139717e-16 1.00000000
vn 0.0000000e+0 2.9139717e-16 1.00000000
vn 0.0000000e+0 1.00000000 0.0000000e+0
vn -1.00000000 3.2493077e-16 0.0000000e+0
vn -1.00000000 3.2493077e-16 0.0000000e+0
vn 0.0000000e+0 2.9139717e-16 1.00000000
vn -1.00000000 -2.7098200e-15 0.0000000e+0
vn 0.0000000e+0 -1.00000000 0.0000000e+0
vn 0.0000000e+0 -1.00000000 0.0000000e+0
vn 0.0000000e+0 2.9139717e-16 1.00000000
vn 0.0000000e+0 2.9139717e-16 1.00000000
vn -1.00000000 0.0000000e+0 0.0000000e+0
vn -1.00000000 0.0000000e+0 0.0000000e+0
vn 0.0000000e+0 -1.00000000 0.0000000e+0
vn 0.0000000e+0 2.9139717e-16 1.00000000
vn 0.0000000e+0 1.00000000 0.0000000e+0
vn 0.0000000e+0 1.00000000 0.0000000e+0
vn -1.00000000 6.4759901e-16 0.0000000e+0
vn -1.00000000 6.4759901e-16 0.0000000e+0
vn -1.00000000 6.4759901e-16 0.0000000e+0
vn 0.0000000e+0 1.00000000 0.0000000e+0
vn 0.0000000e+0 1.00000000 0.0000000e+0
vn 0.0000000e+0 -2.9139717e-16 -1.00000000
vn -1.00000000 3.3596816e-15 0.0000000e+0
vn 0.0000000e+0 1.00000000 0.0000000e+0
vn 0.0000000e+0 -2.9139717e-16 -1.00000000
vn 0.0000000e+0 -2.9139717e-16 -1.00000000
vn -1.00000000 -9.0631241e-16 0.0000000e+0
vn -1.00000000 -9.0631241e-16 0.0000000e+0
vn 0.0000000e+0 -2.9139717e-16 -1.00000000
vn 0.0000000e+0 -2.9139717e-16 -1.00000000
vn -1.00000000 3.2493077e-16 0.0000000e+0
vn -1.00000000 3.2493077e-16 0.0000000e+0
vn 0.0000000e+0 -1.00000000 0.0000000e+0
vn 0.0000000e+0 -2.9139717e-16 -1.00000000
vn -1.00000000 -5.2925100e-16 0.0000000e+0
vn -1.00000000 -5.2925100e-16 0.0000000e+0
vn -1.00000000 -5.2925100e-16 0.0000000e+0
vn -1.00000000 -5.2925100e-16 0.0000000e+0
vn 0.0000000e+0 -1.00000000 0.0000000e+0
vn 0.0000000e+0 -1.00000000 0.0000000e+0
vn 0.0000000e+0 -5.3649803e-17 -1.00000000
vn 0.0000000e+0 1.00000000 0.0000000e+0
vn 1.00000000 -2.0702828e-17 0.0000000e+0
vn 1.00000000 -2.0702828e-17 0.0000000e+0
vn 0.0000000e+0 -5.3649803e-17 -1.00000000
vn 0.0000000e+0 -5.3649803e-17 -1.00000000
vn 1.00000000 1.1323265e-16 0.0000000e+0
vn 0.0000000e+0 1.00000000 -3.2906679e-15
vn 0.0000000e+0 1.00000000 -3.2906679e-15
vn 0.0000000e+0 -5.3649803e-17 -1.00000000
vn 0.0000000e+0 -5.3649803e-17 -1.00000000
vn 0.0000000e+0 1.00000000 0.0000000e+0
vn 0.0000000e+0 1.00000000 0.0000000e+0
vn -1.00000000 5.5283022e-18 0.0000000e+0
vn 0.0000000e+0 -5.3649803e-17 -1.00000000
vn 1.5800265e-16 1.00000000 -1.6695526e-15
vn 1.5800265e-16 1.00000000 -1.6695526e-15
vn 1.5800265e-16 1.00000000 -1.6695526e-15
vn 1.5800265e-16 1.00000000 -1.6695526e-15
vn -1.00000000 2.7641511e-18 0.0000000e+0
vn -1.00000000 2.7641511e-18 0.0000000e+0
vn 0.0000000e+0 1.00000000 -6.3067894e-17
vn 0.0000000e+0 0.0000000e+0 -1.00000000
vn -1.00000000 0.0000000e+0 0.0000000e+0
vn -1.00000000 0.0000000e+0 0.0000000e+0
vn 0.0000000e+0 1.00000000 -6.3067894e-17
vn 0.0000000e+0 1.00000000 -6.3067894e-17
vn 0.0000000e+0 0.0000000e+0 -1.00000000
vn 0.0000000e+0 0.0000000e+0 -1.00000000
vn 1.00000000 0.0000000e+0 0.0000000e+0
vn 0.0000000e+0 1.00000000 0.0000000e+0
vn 0.0000000e+0 1.00000000 0.0000000e+0
vn 1.00000000 -1.5463831e-16 0.0000000e+0
vn 0.0000000e+0 5.3649803e-17 1.00000000
vn 0.0000000e+0 5.3649803e-17 1.00000000
vn 0.0000000e+0 1.00000000 0.0000000e+0
vn -1.00000000 2.7641511e-18 0.0000000e+0
vn -1.00000000 2.7641511e-18 0.0000000e+0
vn 0.0000000e+0 5.3649803e-17 1.00000000
vn 0.0000000e+0 -5.3366832e-17 -1.00000000
vn 0.0000000e+0 -5.3366832e-17 -1.00000000
vn 0.0000000e+0 -1.00000000 0.0000000e+0
vn 0.0000000e+0 -1.00000000 0.0000000e+0
vn -1.00000000 -3.3637953e-17 0.0000000e+0
vn 0.0000000e+0 -5.3366832e-17 -1.00000000
vn -1.00000000 -1.6818977e-17 0.0000000e+0
vn -1.00000000 -1.6818977e-17 0.0000000e+0
vn 0.0000000e+0 -1.00000000 0.0000000e+0
vn -6.4719410e-18 -1.00000000 4.7975772e-17
vn -6.4719410e-18 -1.00000000 4.7975772e-17
vn -6.4719410e-18 -1.00000000 4.7975772e-17
vn -1.00000000 -1.6818977e-17 0.0000000e+0
vn -1.00000000 -1.6818977e-17 0.0000000e+0
vn 0.0000000e+0 5.3366832e-17 1.00000000
vn -1.00000000 0.0000000e+0 0.0000000e+0
vn 0.0000000e+0 -1.00000000 0.0000000e+0
vn 0.0000000e+0 -1.00000000 0.0000000e+0
vn 0.0000000e+0 5.3366832e-17 1.00000000
vn 0.0000000e+0 5.3366832e-17 1.00000000
vn 1.00000000 -2.0702828e-17 0.0000000e+0
vn 1.00000000 -2.0702828e-17 0.0000000e+0
vn -8.3042276e-18 1.00000000 2.9623643e-17
vn -8.3042276e-18 1.00000000 2.9623643e-17
vn -8.3042276e-18 1.00000000 2.9623643e-17
vn 0.0000000e+0 5.3649803e-17 1.00000000
vn 2.8169129e-16 1.00000000 1.1423437e-16
vn 2.8169129e-16 1.00000000 1.1423437e-16
vn -1.00000000 0.0000000e+0 0.0000000e+0
vn 0.0000000e+0 5.3649803e-17 1.00000000
vn 0.0000000e+0 5.3649803e-17 1.00000000
g Dellingr_simplified_stp_SILVER_KAPTON
usemtl SILVER_KAPTON
s 1
f 15//98 19//117 18//112
f 15//99 20//123 19//118
f 28//171 29//175 27//166
f 29//176 30//180 27//167
f 32//191 33//195 31//188
f 32//192 34//200 33//196
f 36//211 37//216 35//207
f 36//212 38//221 37//217
f 41//241 48//276 47//271
f 42//245 48//275 41//240
s 2
f 13//89 46//265 11//77
f 14//91 43//246 12//80
f 14//92 44//251 43//247
f 31//189 33//197 27//169
f 37//218 41//237 35//208
f 45//260 46//264 13//88
s 3
f 11//76 46//263 14//94
f 14//93 46//262 44//254
f 15//96 18//111 16//101
f 16//100 17//105 15//95
f 20//120 21//124 19//115
f 21//125 22//129 19//116
f 30//182 31//187 27//168
g Dellingr_simplified_stp_SILVER_KAPTON2
usemtl SILVER_KAPTON2
s 1
f 2//9 8//55 3//16
f 2//8 40//236 8//54
f 4//20 39//230 1//5
f 5//28 39//231 4//21
s 2
f 2//6 3//10 1//1
f 3//11 4//17 1//2
f 5//26 40//232 39//228
f 8//53 40//233 5//27
s 3
f 1//3 40//234 2//7
f 39//229 40//235 1//4
g Dellingr_simplified_stp_SOLAR_CELL
usemtl SOLAR_CELL
s 1
f 11//75 14//90 12//79
f 12//78 13//85 11//74
f 24//144 25//151 23//136
f 25//152 26//159 23//137
f 44//253 45//259 43//250
f 44//252 46//261 45//258
s 2
f 7//50 38//224 36//215
f 7//48 47//268 23//141
f 9//63 38//222 7//46
f 17//106 20//121 15//97
f 17//107 21//126 20//122
f 18//113 22//134 16//104
f 19//119 22//135 18//114
f 23//140 26//165 7//47
f 23//142 38//225 9//64
f 23//139 48//272 38//223
f 27//170 33//198 28//172
f 36//214 47//269 7//49
f 37//219 42//242 41//238
f 47//270 48//273 23//143
s 3
f 6//36 25//155 24//150
f 6//37 45//255 25//156
f 10//72 12//81 6//35
f 10//73 25//154 12//82
f 12//84 25//157 13//86
f 12//83 43//248 6//38
f 25//158 45//257 13//87
f 28//173 34//205 29//179
f 30//181 32//190 31//186
f 33//199 34//206 28//174
f 35//210 47//267 36//213
f 38//227 42//244 37//220
f 38//226 48//274 42//243
f 41//239 47//266 35//209
f 43//249 45//256 6//39
s 4
f 6//34 34//204 9//60
f 7//44 22//131 10//67
f 7//45 26//164 22//133
f 9//62 24//149 23//138
f 9//61 30//185 24//148
f 9//59 32//194 30//184
f 9//58 34//203 32//193
f 10//71 21//128 17//110
f 10//70 22//132 21//127
f 10//68 26//162 25//153
f 16//102 26//160 17//108
f 17//109 26//163 10//69
f 22//130 26//161 16//103
f 24//146 30//183 29//178
f 24//147 34//202 6//33
f 29//177 34//201 24//145
s 5
f 3//15 6//32 4//19
f 3//14 8//52 7//42
f 3//12 10//65 6//31
f 4//18 6//29 5//22
f 5//25 9//57 7//43
f 6//30 9//56 5//24
f 7//40 8//51 5//23
f 7//41 10//66 3//13
