# Nv = 8  Nvt = 0  Nvn = 36  Npoly = 12

mtllib 42.mtl
o cube1
#8 vertices, 12 faces
v -1.09000000 -2.6367797e-16 1.0000000e-2
v -1.09000000 5.44000000 1.0000000e-2
v 1.09000000 5.44000000 1.0000000e-2
v 1.09000000 -2.6367797e-16 1.0000000e-2
v -1.09000000 -2.6367797e-16 -1.0000000e-2
v -1.09000000 5.44000000 -1.0000000e-2
v 1.09000000 5.44000000 -1.0000000e-2
v 1.09000000 -2.6367797e-16 -1.0000000e-2
vn 0.0000000e+0 0.0000000e+0 1.00000000
vn 0.0000000e+0 -1.00000000 0.0000000e+0
vn -1.00000000 0.0000000e+0 0.0000000e+0
vn 0.0000000e+0 0.0000000e+0 1.00000000
vn 0.0000000e+0 1.00000000 0.0000000e+0
vn -1.00000000 0.0000000e+0 0.0000000e+0
vn 0.0000000e+0 0.0000000e+0 1.00000000
vn 0.0000000e+0 1.00000000 0.0000000e+0
vn -1.00000000 0.0000000e+0 0.0000000e+0
vn 0.0000000e+0 0.0000000e+0 1.00000000
vn 1.00000000 0.0000000e+0 0.0000000e+0
vn 0.0000000e+0 1.00000000 0.0000000e+0
vn 0.0000000e+0 0.0000000e+0 1.00000000
vn 1.00000000 0.0000000e+0 0.0000000e+0
vn 0.0000000e+0 -1.00000000 0.0000000e+0
vn 0.0000000e+0 0.0000000e+0 1.00000000
vn 1.00000000 0.0000000e+0 0.0000000e+0
vn 0.0000000e+0 -1.00000000 0.0000000e+0
vn 0.0000000e+0 -1.00000000 0.0000000e+0
vn 0.0000000e+0 0.0000000e+0 -1.00000000
vn -1.00000000 0.0000000e+0 0.0000000e+0
vn 0.0000000e+0 0.0000000e+0 -1.00000000
vn 0.0000000e+0 -1.00000000 0.0000000e+0
vn -1.00000000 0.0000000e+0 0.0000000e+0
vn 0.0000000e+0 1.00000000 0.0000000e+0
vn -1.00000000 0.0000000e+0 0.0000000e+0
vn 0.0000000e+0 0.0000000e+0 -1.00000000
vn 1.00000000 0.0000000e+0 0.0000000e+0
vn 0.0000000e+0 1.00000000 0.0000000e+0
vn 0.0000000e+0 0.0000000e+0 -1.00000000
vn 1.00000000 0.0000000e+0 0.0000000e+0
vn 0.0000000e+0 0.0000000e+0 -1.00000000
vn 0.0000000e+0 1.00000000 0.0000000e+0
vn 1.00000000 0.0000000e+0 0.0000000e+0
vn 0.0000000e+0 -1.00000000 0.0000000e+0
vn 0.0000000e+0 0.0000000e+0 -1.00000000

usemtl SOLAR_CELL
s 1
f 1//1 4//16 2//7
f 2//4 4//13 3//10

usemtl FLAT_WHITE
s 1
f 5//20 7//30 8//36
f 6//27 7//32 5//22
s 2
f 1//2 5//23 4//18
f 2//5 7//29 6//25
f 3//12 7//33 2//8
f 4//15 5//19 8//35
s 3
f 2//9 5//24 1//3
f 4//17 7//31 3//11
f 6//26 5//21 2//6
f 8//34 7//28 4//14
