# Nv = 10  Nvt = 0  Nvn = 48  Npoly = 16
# Exported from Wings 3D 1.5.2
mtllib Orion_SolarArray.mtl
o Cube1
#10 vertices, 16 faces
v -4.8479710e-3 1.14519000 -1.37422800
v -4.8479710e-3 1.14519000 1.37422800
v -4.8479710e-3 10.68844000 -1.37422800
v -4.8479710e-3 10.68844000 1.37422800
v 4.8479710e-3 1.14519000 -1.37422800
v 4.8479710e-3 1.14519000 1.37422800
v 4.8479710e-3 10.68844000 -1.37422800
v 4.8479710e-3 10.68844000 1.37422800
v -4.8479710e-3 -8.8817842e-16 0.0000000e+0
v 4.8479710e-3 -8.8817842e-16 0.0000000e+0
vn -1.00000000 0.0000000e+0 0.0000000e+0
vn 0.0000000e+0 -0.42415540 -0.90558942
vn -1.00000000 0.0000000e+0 0.0000000e+0
vn 0.0000000e+0 -0.42415540 -0.90558942
vn 0.0000000e+0 -0.27938575 0.96017894
vn -1.00000000 0.0000000e+0 0.0000000e+0
vn 0.0000000e+0 -0.27938575 0.96017894
vn -1.00000000 0.0000000e+0 0.0000000e+0
vn 0.0000000e+0 -0.27938575 0.96017894
vn -1.00000000 0.0000000e+0 0.0000000e+0
vn 0.0000000e+0 1.00000000 0.0000000e+0
vn 0.0000000e+0 0.0000000e+0 -1.00000000
vn -1.00000000 0.0000000e+0 0.0000000e+0
vn 0.0000000e+0 1.00000000 0.0000000e+0
vn -1.00000000 0.0000000e+0 0.0000000e+0
vn 0.0000000e+0 0.0000000e+0 -1.00000000
vn -1.00000000 0.0000000e+0 0.0000000e+0
vn 0.0000000e+0 1.00000000 0.0000000e+0
vn 0.0000000e+0 0.0000000e+0 1.00000000
vn 0.0000000e+0 -0.42415540 -0.90558942
vn 1.00000000 0.0000000e+0 0.0000000e+0
vn 1.00000000 0.0000000e+0 0.0000000e+0
vn 0.0000000e+0 -0.42415540 -0.90558942
vn 1.00000000 0.0000000e+0 0.0000000e+0
vn 0.0000000e+0 -0.42415540 -0.90558942
vn 0.0000000e+0 -0.42415540 -0.90558942
vn 0.0000000e+0 -0.55877150 0.82932166
vn 1.00000000 0.0000000e+0 0.0000000e+0
vn 0.0000000e+0 -0.55877150 0.82932166
vn 1.00000000 0.0000000e+0 0.0000000e+0
vn 0.0000000e+0 -0.55877150 0.82932166
vn 0.0000000e+0 1.00000000 0.0000000e+0
vn 0.0000000e+0 0.0000000e+0 -1.00000000
vn 1.00000000 0.0000000e+0 0.0000000e+0
vn 0.0000000e+0 1.00000000 0.0000000e+0
vn 0.0000000e+0 0.0000000e+0 1.00000000
vn 1.00000000 0.0000000e+0 0.0000000e+0
vn 0.0000000e+0 1.00000000 0.0000000e+0
vn 1.00000000 0.0000000e+0 0.0000000e+0
vn 0.0000000e+0 0.0000000e+0 1.00000000
vn 0.0000000e+0 -0.76822128 0.64018440
vn 0.0000000e+0 -0.76822128 0.64018440
vn -1.00000000 0.0000000e+0 0.0000000e+0
vn 0.0000000e+0 -0.76822128 -0.64018440
vn 0.0000000e+0 -0.76822128 -0.64018440
vn 1.00000000 0.0000000e+0 0.0000000e+0
vn 0.0000000e+0 -0.76822128 0.64018440
vn 0.0000000e+0 -0.76822128 -0.64018440
g Cube1_FLAT_BLACK
usemtl FLAT_BLACK
s 1
f 3//11 8//35 7//32
f 4//18 8//38 3//14
s 3
f 2//7 8//40 4//19
f 2//9 9//41 6//29
f 6//27 8//36 2//5
f 10//47 6//31 9//42
s 4
f 3//16 5//23 1//2
f 5//26 9//45 1//4
f 7//33 5//20 3//12
f 9//44 5//25 10//48
g Cube1_FLAT_WHITE
usemtl FLAT_WHITE
s 2
f 2//8 3//15 1//1
f 4//17 3//13 2//6
g Cube1_SOLAR_CELL
usemtl SOLAR_CELL
s 2
f 5//22 8//39 6//28
f 7//34 8//37 5//21
g Cube1_default
usemtl default
s 2
f 1//3 9//43 2//10
f 6//30 10//46 5//24
