# Nv = 44  Nvt = 0  Nvn = 240  Npoly = 80
# Exported from Wings 3D 1.4.1
mtllib Rover.mtl
o Body
#44 vertices, 80 faces
v -2.18179862 1.25000000 -1.00000034
v -2.18179862 -1.25000000 -1.00000034
v -1.6735114e-2 -2.50000000 -1.00000034
v 2.14832840 -1.25000000 -1.00000034
v 2.14832840 1.25000000 -1.00000034
v -1.6735114e-2 2.50000000 -1.00000034
v -2.18179862 1.25000000 0.99999966
v -2.18179862 -1.25000000 0.99999966
v -1.6735114e-2 -2.50000000 0.99999966
v 2.14832840 -1.25000000 0.99999966
v 2.14832840 1.25000000 0.99999966
v -1.6735114e-2 2.50000000 0.99999966
v -0.11673511 1.3070462e-16 -5.00000034
v -0.10912307 -3.8268343e-2 -5.00000034
v -8.7445792e-2 -7.0710678e-2 -5.00000034
v -5.5003458e-2 -9.2387953e-2 -5.00000034
v -1.6735114e-2 -1.0000000e-1 -5.00000034
v 2.1533229e-2 -9.2387953e-2 -5.00000034
v 5.3975564e-2 -7.0710678e-2 -5.00000034
v 7.5652839e-2 -3.8268343e-2 -5.00000034
v 8.3264886e-2 1.1845815e-16 -5.00000034
v 7.5652839e-2 3.8268343e-2 -5.00000034
v 5.3975564e-2 7.0710678e-2 -5.00000034
v 2.1533229e-2 9.2387953e-2 -5.00000034
v -1.6735114e-2 0.10000000 -5.00000034
v -5.5003458e-2 9.2387953e-2 -5.00000034
v -8.7445792e-2 7.0710678e-2 -5.00000034
v -0.10912307 3.8268343e-2 -5.00000034
v -0.11673511 -1.1422474e-16 -1.00000034
v -0.10912307 -3.8268343e-2 -1.00000034
v -8.7445792e-2 -7.0710678e-2 -1.00000034
v -5.5003458e-2 -9.2387953e-2 -1.00000034
v -1.6735114e-2 -0.10000000 -1.00000034
v 2.1533229e-2 -9.2387953e-2 -1.00000034
v 5.3975564e-2 -7.0710678e-2 -1.00000034
v 7.5652839e-2 -3.8268343e-2 -1.00000034
v 8.3264886e-2 -1.2647121e-16 -1.00000034
v 7.5652839e-2 3.8268343e-2 -1.00000034
v 5.3975564e-2 7.0710678e-2 -1.00000034
v 2.1533229e-2 9.2387953e-2 -1.00000034
v -1.6735114e-2 1.0000000e-1 -1.00000034
v -5.5003458e-2 9.2387953e-2 -1.00000034
v -8.7445792e-2 7.0710678e-2 -1.00000034
v -0.10912307 3.8268343e-2 -1.00000034
vn 0.0000000e+0 3.5527137e-16 -1.00000000
vn -0.50000000 0.86602540 0.0000000e+0
vn -1.00000000 -4.1985921e-16 0.0000000e+0
vn 2.6665083e-16 1.7763568e-16 -1.00000000
vn -0.50000000 -0.86602540 0.0000000e+0
vn -1.00000000 -2.0992961e-16 0.0000000e+0
vn 2.6665083e-16 1.7763568e-16 -1.00000000
vn -1.00000000 -2.0992961e-16 0.0000000e+0
vn -0.50000000 -0.86602540 0.0000000e+0
vn 1.5041841e-16 -6.0726541e-32 -1.00000000
vn 1.5041841e-16 -6.0726541e-32 -1.00000000
vn 1.5041841e-16 -6.0726541e-32 -1.00000000
vn -0.50000000 -0.86602540 0.0000000e+0
vn 0.50000000 -0.86602540 0.0000000e+0
vn 1.00000000 -1.7763568e-16 0.0000000e+0
vn 0.50000000 -0.86602540 0.0000000e+0
vn 0.0000000e+0 0.0000000e+0 -1.00000000
vn 0.50000000 -0.86602540 0.0000000e+0
vn 1.00000000 -1.7763568e-16 0.0000000e+0
vn -4.1023204e-17 0.0000000e+0 -1.00000000
vn -4.1023204e-17 0.0000000e+0 -1.00000000
vn 1.00000000 0.0000000e+0 0.0000000e+0
vn 0.50000000 0.86602540 0.0000000e+0
vn 1.5041841e-16 1.1842379e-16 -1.00000000
vn -0.50000000 0.86602540 5.4470317e-17
vn 0.50000000 0.86602540 -5.4470317e-17
vn 1.5041841e-16 1.1842379e-16 -1.00000000
vn 1.5041841e-16 1.1842379e-16 -1.00000000
vn -0.50000000 0.86602540 5.4470317e-17
vn 0.50000000 0.86602540 -5.4470317e-17
vn -0.50000000 0.86602540 5.4470317e-17
vn -1.00000000 -2.0992961e-16 0.0000000e+0
vn -1.6409282e-16 0.0000000e+0 1.00000000
vn -0.50000000 0.86602540 5.4470317e-17
vn -1.00000000 -2.0992961e-16 0.0000000e+0
vn -0.50000000 -0.86602540 0.0000000e+0
vn -1.00000000 0.0000000e+0 0.0000000e+0
vn -1.6409282e-16 5.7521108e-32 1.00000000
vn -1.6409282e-16 5.7521108e-32 1.00000000
vn -1.6409282e-16 5.7521108e-32 1.00000000
vn 4.1023204e-17 -2.6645353e-16 1.00000000
vn 0.50000000 -0.86602540 0.0000000e+0
vn -0.50000000 -0.86602540 0.0000000e+0
vn 4.1023204e-17 -2.6645353e-16 1.00000000
vn -0.50000000 -0.86602540 0.0000000e+0
vn 0.50000000 -0.86602540 0.0000000e+0
vn 1.6409282e-16 -3.5527137e-16 1.00000000
vn 1.00000000 -3.5527137e-16 0.0000000e+0
vn 0.50000000 -0.86602540 0.0000000e+0
vn -5.4697605e-17 -1.1842379e-16 1.00000000
vn 0.50000000 0.86602540 -5.4470317e-17
vn 1.00000000 -1.7763568e-16 0.0000000e+0
vn -5.4697605e-17 -1.1842379e-16 1.00000000
vn -5.4697605e-17 -1.1842379e-16 1.00000000
vn 1.00000000 -1.7763568e-16 0.0000000e+0
vn 0.50000000 0.86602540 -5.4470317e-17
vn -0.50000000 0.86602540 1.0894063e-16
vn 0.50000000 0.86602540 -1.0894063e-16
vn -2.0511602e-16 8.8817842e-17 1.00000000
vn -2.0511602e-16 8.8817842e-17 1.00000000
vn -2.6168208e-15 0.0000000e+0 -1.00000000
vn -2.6168208e-15 0.0000000e+0 -1.00000000
vn -2.6168208e-15 0.0000000e+0 -1.00000000
vn -1.00000000 1.6979604e-16 -1.2147160e-16
vn -1.00000000 1.6979604e-16 -1.2147160e-16
vn -0.92387953 -0.38268343 -1.3572592e-16
vn -0.92387953 -0.38268343 -1.3572592e-16
vn 0.0000000e+0 0.0000000e+0 -1.00000000
vn 0.0000000e+0 0.0000000e+0 -1.00000000
vn 0.0000000e+0 0.0000000e+0 -1.00000000
vn -0.92387953 -0.38268343 -1.3572592e-16
vn -0.92387953 -0.38268343 -1.3572592e-16
vn 0.0000000e+0 0.0000000e+0 -1.00000000
vn 0.0000000e+0 0.0000000e+0 -1.00000000
vn 0.0000000e+0 0.0000000e+0 -1.00000000
vn -0.70710678 -0.70710678 -1.3174179e-16
vn -0.70710678 -0.70710678 -1.3174179e-16
vn -0.38268343 -0.92387953 -1.0341022e-16
vn -0.38268343 -0.92387953 -1.0341022e-16
vn 0.0000000e+0 0.0000000e+0 -1.00000000
vn 0.0000000e+0 0.0000000e+0 -1.00000000
vn 0.0000000e+0 0.0000000e+0 -1.00000000
vn -0.38268343 -0.92387953 -1.0341022e-16
vn -0.38268343 -0.92387953 -1.0341022e-16
vn 0.0000000e+0 0.0000000e+0 -1.00000000
vn 2.8299339e-17 -1.00000000 -7.0828920e-17
vn 2.8299339e-17 -1.00000000 -7.0828920e-17
vn 0.38268343 -0.92387953 -1.1332627e-17
vn 0.38268343 -0.92387953 -1.1332627e-17
vn 0.0000000e+0 0.0000000e+0 -1.00000000
vn 0.0000000e+0 0.0000000e+0 -1.00000000
vn 0.38268343 -0.92387953 -1.1332627e-17
vn 0.38268343 -0.92387953 -1.1332627e-17
vn 0.0000000e+0 0.0000000e+0 -1.00000000
vn 0.0000000e+0 0.0000000e+0 -1.00000000
vn 0.0000000e+0 0.0000000e+0 -1.00000000
vn 0.70710678 -0.70710678 4.1080774e-17
vn 0.70710678 -0.70710678 4.1080774e-17
vn 0.92387953 -0.38268343 8.8093470e-17
vn 0.92387953 -0.38268343 8.8093470e-17
vn 0.0000000e+0 0.0000000e+0 -1.00000000
vn 0.0000000e+0 0.0000000e+0 -1.00000000
vn 0.0000000e+0 0.0000000e+0 -1.00000000
vn 0.92387953 -0.38268343 8.8093470e-17
vn 0.92387953 -0.38268343 8.8093470e-17
vn 0.0000000e+0 0.0000000e+0 -1.00000000
vn 0.0000000e+0 0.0000000e+0 -1.00000000
vn 0.0000000e+0 0.0000000e+0 -1.00000000
vn 1.00000000 -2.8299339e-17 1.2147160e-16
vn 1.00000000 -2.8299339e-17 1.2147160e-16
vn 4.6992979e-16 0.0000000e+0 -1.00000000
vn 0.92387953 0.38268343 1.3572592e-16
vn 0.92387953 0.38268343 1.3572592e-16
vn 4.6992979e-16 0.0000000e+0 -1.00000000
vn 4.6992979e-16 0.0000000e+0 -1.00000000
vn 0.92387953 0.38268343 1.3572592e-16
vn 0.92387953 0.38268343 1.3572592e-16
vn -9.4628340e-16 0.0000000e+0 -1.00000000
vn -9.4628340e-16 0.0000000e+0 -1.00000000
vn -9.4628340e-16 0.0000000e+0 -1.00000000
vn 0.70710678 0.70710678 1.3457495e-16
vn 0.70710678 0.70710678 1.3457495e-16
vn 0.38268343 0.92387953 1.0482680e-16
vn 0.38268343 0.92387953 1.0482680e-16
vn 0.0000000e+0 0.0000000e+0 -1.00000000
vn 0.0000000e+0 0.0000000e+0 -1.00000000
vn 0.0000000e+0 0.0000000e+0 -1.00000000
vn 0.38268343 0.92387953 1.0482680e-16
vn 0.38268343 0.92387953 1.0482680e-16
vn 0.0000000e+0 0.0000000e+0 -1.00000000
vn 1.9809538e-16 1.00000000 7.0828920e-17
vn 1.9809538e-16 1.00000000 7.0828920e-17
vn -0.38268343 0.92387953 1.2749206e-17
vn -0.38268343 0.92387953 1.2749206e-17
vn 0.0000000e+0 0.0000000e+0 -1.00000000
vn 0.0000000e+0 0.0000000e+0 -1.00000000
vn -0.38268343 0.92387953 1.2749206e-17
vn -0.38268343 0.92387953 1.2749206e-17
vn -4.0330340e-15 0.0000000e+0 -1.00000000
vn -4.0330340e-15 0.0000000e+0 -1.00000000
vn -4.0330340e-15 0.0000000e+0 -1.00000000
vn -0.70710678 0.70710678 -4.5330509e-17
vn -0.70710678 0.70710678 -4.5330509e-17
vn -3.5631042e-15 0.0000000e+0 -1.00000000
vn -0.92387953 0.38268343 -8.8093470e-17
vn -0.92387953 0.38268343 -8.8093470e-17
vn -3.5631042e-15 0.0000000e+0 -1.00000000
vn -3.5631042e-15 0.0000000e+0 -1.00000000
vn -0.92387953 0.38268343 -8.8093470e-17
vn -0.92387953 0.38268343 -8.8093470e-17
vn -1.00000000 1.9809538e-16 -1.2143064e-16
vn -1.00000000 2.0517021e-16 -1.2143064e-16
vn 0.0000000e+0 0.0000000e+0 1.00000000
vn 0.0000000e+0 0.0000000e+0 1.00000000
vn 0.0000000e+0 0.0000000e+0 1.00000000
vn -1.00000000 1.9809538e-16 -1.2143064e-16
vn -1.00000000 2.0517021e-16 -1.2143064e-16
vn -0.92387953 -0.38268343 -1.3528324e-16
vn -0.92387953 -0.38268343 -1.3528324e-16
vn 0.0000000e+0 0.0000000e+0 1.00000000
vn 0.0000000e+0 0.0000000e+0 1.00000000
vn 0.0000000e+0 0.0000000e+0 1.00000000
vn -0.70710678 -0.70710678 -1.2907007e-16
vn -0.70710678 -0.70710678 -1.2907007e-16
vn 0.0000000e+0 0.0000000e+0 1.00000000
vn 0.0000000e+0 0.0000000e+0 1.00000000
vn 0.0000000e+0 0.0000000e+0 1.00000000
vn -0.70710678 -0.70710678 -1.2907007e-16
vn -0.70710678 -0.70710678 -1.2907007e-16
vn 0.0000000e+0 0.0000000e+0 1.00000000
vn -0.38268343 -0.92387953 -9.9160488e-17
vn -0.38268343 -0.92387953 -9.9160488e-17
vn 0.0000000e+0 0.0000000e+0 1.00000000
vn 0.0000000e+0 0.0000000e+0 1.00000000
vn 7.0748349e-18 -1.00000000 -6.3746028e-17
vn 1.4149670e-17 -1.00000000 -6.3746028e-17
vn 7.0748349e-18 -1.00000000 -6.3746028e-17
vn 7.0748349e-18 -1.00000000 -6.3746028e-17
vn 0.0000000e+0 0.0000000e+0 1.00000000
vn 0.38268343 -0.92387953 -5.6663136e-18
vn 0.38268343 -0.92387953 -5.6663136e-18
vn 0.0000000e+0 0.0000000e+0 1.00000000
vn 0.0000000e+0 0.0000000e+0 1.00000000
vn 0.70710678 -0.70710678 4.2658790e-17
vn 0.70710678 -0.70710678 4.2658790e-17
vn 0.0000000e+0 0.0000000e+0 1.00000000
vn 0.0000000e+0 0.0000000e+0 1.00000000
vn 0.0000000e+0 0.0000000e+0 1.00000000
vn 0.70710678 -0.70710678 4.2658790e-17
vn 0.70710678 -0.70710678 4.2658790e-17
vn 0.92387953 -0.38268343 8.8890295e-17
vn 0.92387953 -0.38268343 8.8890295e-17
vn 0.0000000e+0 0.0000000e+0 1.00000000
vn 0.0000000e+0 0.0000000e+0 1.00000000
vn 0.0000000e+0 0.0000000e+0 1.00000000
vn 1.00000000 -1.4149670e-17 1.2143064e-16
vn 1.00000000 -1.4149670e-17 1.2143064e-16
vn 0.0000000e+0 0.0000000e+0 1.00000000
vn 0.0000000e+0 0.0000000e+0 1.00000000
vn 0.0000000e+0 0.0000000e+0 1.00000000
vn 1.00000000 -1.4149670e-17 1.2143064e-16
vn 1.00000000 -1.4149670e-17 1.2143064e-16
vn 0.92387953 0.38268343 1.3528324e-16
vn 0.92387953 0.38268343 1.3528324e-16
vn 0.0000000e+0 0.0000000e+0 1.00000000
vn 0.0000000e+0 0.0000000e+0 1.00000000
vn 0.0000000e+0 0.0000000e+0 1.00000000
vn 0.70710678 0.70710678 1.2907007e-16
vn 0.70710678 0.70710678 1.2907007e-16
vn 0.0000000e+0 0.0000000e+0 1.00000000
vn 0.0000000e+0 0.0000000e+0 1.00000000
vn 0.0000000e+0 0.0000000e+0 1.00000000
vn 0.70710678 0.70710678 1.2907007e-16
vn 0.70710678 0.70710678 1.2907007e-16
vn 0.38268343 0.92387953 9.6327332e-17
vn 0.38268343 0.92387953 9.6327332e-17
vn 0.0000000e+0 0.0000000e+0 1.00000000
vn 0.0000000e+0 0.0000000e+0 1.00000000
vn 1.9102054e-16 1.00000000 6.5162607e-17
vn 1.9102054e-16 1.00000000 6.5162607e-17
vn 0.0000000e+0 0.0000000e+0 1.00000000
vn 1.8394571e-16 1.00000000 6.5162607e-17
vn 1.9102054e-16 1.00000000 6.5162607e-17
vn -0.38268343 0.92387953 1.4165784e-17
vn -0.38268343 0.92387953 1.4165784e-17
vn 0.0000000e+0 0.0000000e+0 1.00000000
vn 0.0000000e+0 0.0000000e+0 1.00000000
vn 0.0000000e+0 0.0000000e+0 1.00000000
vn -0.70710678 0.70710678 -4.1242212e-17
vn -0.70710678 0.70710678 -4.1242212e-17
vn 0.0000000e+0 0.0000000e+0 1.00000000
vn 0.0000000e+0 0.0000000e+0 1.00000000
vn 0.0000000e+0 0.0000000e+0 1.00000000
vn -0.70710678 0.70710678 -4.1242212e-17
vn -0.70710678 0.70710678 -4.1242212e-17
vn -0.92387953 0.38268343 -8.7473717e-17
vn -0.92387953 0.38268343 -8.7473717e-17
vn 0.0000000e+0 0.0000000e+0 1.00000000
vn 0.0000000e+0 0.0000000e+0 1.00000000
vn 0.0000000e+0 0.0000000e+0 1.00000000
g Body_WALKER_BODY
usemtl WALKER_BODY
s 1
f 2//5 9//43 8//36
f 3//13 9//45 2//9
f 6//30 11//56 5//23
f 12//58 11//51 6//26
f 13//63 21//107 14//69
f 14//68 20//102 15//75
f 15//73 19//95 16//82
f 16//80 18//90 17//85
f 18//91 16//81 19//94
f 19//96 15//74 20//101
f 20//103 14//70 21//108
f 21//106 13//62 22//114
f 22//115 28//148 23//119
f 23//120 27//141 24//126
f 24//127 26//136 25//130
f 26//135 24//125 27//140
f 27//139 23//118 28//147
f 28//144 22//111 13//61
f 29//155 37//200 44//239
f 30//162 36//194 29//153
f 31//167 35//187 30//160
f 32//173 34//182 31//165
f 33//174 34//179 32//170
f 35//186 31//166 34//183
f 36//193 30//161 35//188
f 37//199 29//154 36//195
f 38//205 44//238 37//198
f 39//210 43//231 38//206
f 40//218 42//227 39//211
f 41//221 42//226 40//217
f 43//233 39//212 42//228
f 44//240 38//207 43//232
s 2
f 1//2 7//34 6//29
f 4//18 9//46 3//14
f 6//25 7//31 12//57
f 10//49 9//42 4//16
f 13//64 29//156 28//149
f 14//71 29//157 13//65
f 14//66 31//164 30//158
f 15//76 31//168 14//72
f 16//83 31//169 15//77
f 16//78 33//176 32//171
f 17//86 33//177 16//84
f 18//92 33//178 17//87
f 18//88 35//185 34//180
f 19//97 35//189 18//93
f 20//104 35//190 19//98
f 20//99 37//197 36//191
f 21//109 37//201 20//105
f 22//116 37//202 21//110
f 22//112 39//209 38//203
f 23//121 39//213 22//117
f 24//128 39//214 23//122
f 24//123 41//220 40//215
f 25//131 41//222 24//129
f 26//137 41//223 25//132
f 26//133 43//230 42//224
f 27//142 43//234 26//138
f 28//145 29//151 44//236
f 28//150 43//235 27//143
f 30//159 29//152 14//67
f 32//172 31//163 16//79
f 34//181 33//175 18//89
f 36//192 35//184 20//100
f 38//204 37//196 22//113
f 40//216 39//208 24//124
f 42//225 41//219 26//134
f 44//237 43//229 28//146
s 3
f 2//8 7//35 1//3
f 4//15 11//52 10//48
f 5//22 11//55 4//19
f 8//37 7//32 2//6
s 4
f 1//1 6//24 2//4
f 2//7 6//28 3//11
f 3//12 5//21 4//17
f 5//20 3//10 6//27
f 8//40 12//60 7//33
f 9//44 11//53 8//38
f 10//47 11//50 9//41
f 12//59 8//39 11//54
