# Nv = 48  Nvt = 0  Nvn = 252  Npoly = 84
# Exported from Wings 3D 1.4.1
mtllib Rover.mtl
o Solar Array
#48 vertices, 84 faces
v -4.2351143e-3 0.25000000 -1.00000034
v -4.2351143e-3 4.25000000 -1.00000034
v -2.9235114e-2 4.25000000 -1.00000034
v -2.9235114e-2 0.25000000 -1.00000034
v -4.2351143e-3 0.25000000 0.99999966
v -4.2351143e-3 4.25000000 0.99999966
v -2.9235114e-2 4.25000000 0.99999966
v -2.9235114e-2 0.25000000 0.99999966
v -4.2351143e-3 -4.25000000 -1.00000034
v -4.2351143e-3 -0.25000000 -1.00000034
v -2.9235114e-2 -0.25000000 -1.00000034
v -2.9235114e-2 -4.25000000 -1.00000034
v -4.2351143e-3 -4.25000000 0.99999966
v -4.2351143e-3 -0.25000000 0.99999966
v -2.9235114e-2 -0.25000000 0.99999966
v -2.9235114e-2 -4.25000000 0.99999966
v -0.11673511 0.25000000 -3.3667781e-7
v -0.10912307 0.25000000 -3.8268680e-2
v -8.7445792e-2 0.25000000 -7.0711015e-2
v -5.5003458e-2 0.25000000 -9.2388290e-2
v -1.6735114e-2 0.25000000 -0.10000034
v 2.1533229e-2 0.25000000 -9.2388290e-2
v 5.3975564e-2 0.25000000 -7.0711015e-2
v 7.5652839e-2 0.25000000 -3.8268680e-2
v 8.3264886e-2 0.25000000 -3.3667781e-7
v 7.5652839e-2 0.25000000 3.8268007e-2
v 5.3975564e-2 0.25000000 7.0710341e-2
v 2.1533229e-2 0.25000000 9.2387617e-2
v -1.6735114e-2 0.25000000 9.9999663e-2
v -5.5003458e-2 0.25000000 9.2387617e-2
v -8.7445792e-2 0.25000000 7.0710341e-2
v -0.10912307 0.25000000 3.8268007e-2
v -0.11673511 -0.25000000 -3.3667781e-7
v -0.10912307 -0.25000000 -3.8268680e-2
v -8.7445792e-2 -0.25000000 -7.0711015e-2
v -5.5003458e-2 -0.25000000 -9.2388290e-2
v -1.6735114e-2 -0.25000000 -0.10000034
v 2.1533229e-2 -0.25000000 -9.2388290e-2
v 5.3975564e-2 -0.25000000 -7.0711015e-2
v 7.5652839e-2 -0.25000000 -3.8268680e-2
v 8.3264886e-2 -0.25000000 -3.3667781e-7
v 7.5652839e-2 -0.25000000 3.8268007e-2
v 5.3975564e-2 -0.25000000 7.0710341e-2
v 2.1533229e-2 -0.25000000 9.2387617e-2
v -1.6735114e-2 -0.25000000 9.9999663e-2
v -5.5003458e-2 -0.25000000 9.2387617e-2
v -8.7445792e-2 -0.25000000 7.0710341e-2
v -0.10912307 -0.25000000 3.8268007e-2
vn 0.0000000e+0 0.0000000e+0 -1.00000000
vn 0.0000000e+0 -1.00000000 0.0000000e+0
vn 1.00000000 0.0000000e+0 1.2316537e-16
vn 0.0000000e+0 0.0000000e+0 -1.00000000
vn 0.0000000e+0 1.00000000 -1.2143064e-16
vn 1.00000000 0.0000000e+0 1.2316537e-16
vn 0.0000000e+0 0.0000000e+0 -1.00000000
vn 0.0000000e+0 1.00000000 -1.2143064e-16
vn 1.00000000 0.0000000e+0 1.2316537e-16
vn 0.0000000e+0 0.0000000e+0 -1.00000000
vn -1.00000000 0.0000000e+0 -1.2316537e-16
vn 0.0000000e+0 1.00000000 0.0000000e+0
vn 0.0000000e+0 0.0000000e+0 -1.00000000
vn -1.00000000 0.0000000e+0 -1.2316537e-16
vn 0.0000000e+0 -1.00000000 0.0000000e+0
vn 0.0000000e+0 0.0000000e+0 -1.00000000
vn -1.00000000 0.0000000e+0 -1.2316537e-16
vn 0.0000000e+0 -1.00000000 0.0000000e+0
vn 0.0000000e+0 -1.00000000 0.0000000e+0
vn 0.0000000e+0 0.0000000e+0 1.00000000
vn 1.00000000 0.0000000e+0 1.2316537e-16
vn 0.0000000e+0 0.0000000e+0 1.00000000
vn 0.0000000e+0 -1.00000000 0.0000000e+0
vn 1.00000000 0.0000000e+0 1.2316537e-16
vn 0.0000000e+0 1.00000000 -2.4286129e-16
vn 1.00000000 0.0000000e+0 1.2316537e-16
vn 0.0000000e+0 0.0000000e+0 1.00000000
vn -1.00000000 0.0000000e+0 -1.2316537e-16
vn 0.0000000e+0 1.00000000 -1.2143064e-16
vn 0.0000000e+0 0.0000000e+0 1.00000000
vn -1.00000000 0.0000000e+0 -1.2316537e-16
vn 0.0000000e+0 0.0000000e+0 1.00000000
vn 0.0000000e+0 1.00000000 -1.2143064e-16
vn -1.00000000 0.0000000e+0 -1.2316537e-16
vn 0.0000000e+0 -1.00000000 0.0000000e+0
vn 0.0000000e+0 0.0000000e+0 1.00000000
vn 0.0000000e+0 0.0000000e+0 -1.00000000
vn 0.0000000e+0 -1.00000000 5.5511151e-16
vn 1.00000000 0.0000000e+0 1.2316537e-16
vn 0.0000000e+0 0.0000000e+0 -1.00000000
vn 0.0000000e+0 1.00000000 0.0000000e+0
vn 1.00000000 0.0000000e+0 1.2316537e-16
vn 0.0000000e+0 0.0000000e+0 -1.00000000
vn 0.0000000e+0 1.00000000 0.0000000e+0
vn 1.00000000 0.0000000e+0 1.2316537e-16
vn 0.0000000e+0 0.0000000e+0 -1.00000000
vn -1.00000000 0.0000000e+0 -1.2316537e-16
vn 0.0000000e+0 1.00000000 0.0000000e+0
vn 0.0000000e+0 0.0000000e+0 -1.00000000
vn -1.00000000 0.0000000e+0 -1.2316537e-16
vn 0.0000000e+0 -1.00000000 1.2143064e-16
vn 0.0000000e+0 0.0000000e+0 -1.00000000
vn -1.00000000 0.0000000e+0 -1.2316537e-16
vn 0.0000000e+0 -1.00000000 1.2143064e-16
vn 0.0000000e+0 -1.00000000 1.2143064e-16
vn 0.0000000e+0 0.0000000e+0 1.00000000
vn 1.00000000 0.0000000e+0 1.2316537e-16
vn 0.0000000e+0 0.0000000e+0 1.00000000
vn 0.0000000e+0 -1.00000000 1.2143064e-16
vn 1.00000000 0.0000000e+0 1.2316537e-16
vn 0.0000000e+0 1.00000000 0.0000000e+0
vn 1.00000000 0.0000000e+0 1.2316537e-16
vn 0.0000000e+0 0.0000000e+0 1.00000000
vn -1.00000000 0.0000000e+0 -1.2316537e-16
vn 0.0000000e+0 1.00000000 0.0000000e+0
vn 0.0000000e+0 0.0000000e+0 1.00000000
vn -1.00000000 0.0000000e+0 -1.2316537e-16
vn 0.0000000e+0 0.0000000e+0 1.00000000
vn 0.0000000e+0 1.00000000 0.0000000e+0
vn -1.00000000 0.0000000e+0 -1.2316537e-16
vn 0.0000000e+0 -1.00000000 -3.1225023e-16
vn 0.0000000e+0 0.0000000e+0 1.00000000
vn 0.0000000e+0 1.00000000 0.0000000e+0
vn -1.00000000 0.0000000e+0 3.5374174e-16
vn -1.00000000 0.0000000e+0 3.5374174e-16
vn 0.0000000e+0 1.00000000 0.0000000e+0
vn -0.92387953 0.0000000e+0 -0.38268343
vn -0.92387953 0.0000000e+0 -0.38268343
vn 0.0000000e+0 1.00000000 0.0000000e+0
vn -0.92387953 0.0000000e+0 -0.38268343
vn -0.92387953 0.0000000e+0 -0.38268343
vn 0.0000000e+0 1.00000000 0.0000000e+0
vn 0.0000000e+0 1.00000000 0.0000000e+0
vn 0.0000000e+0 1.00000000 0.0000000e+0
vn -0.70710678 0.0000000e+0 -0.70710678
vn -0.70710678 0.0000000e+0 -0.70710678
vn -0.38268343 0.0000000e+0 -0.92387953
vn -0.38268343 0.0000000e+0 -0.92387953
vn 0.0000000e+0 1.00000000 1.6355130e-16
vn 0.0000000e+0 1.00000000 1.6355130e-16
vn 0.0000000e+0 1.00000000 1.6355130e-16
vn -0.38268343 0.0000000e+0 -0.92387953
vn -0.38268343 0.0000000e+0 -0.92387953
vn 0.0000000e+0 1.00000000 1.6355130e-16
vn 0.0000000e+0 1.00000000 1.6355130e-16
vn 0.0000000e+0 1.00000000 1.6355130e-16
vn 4.2449009e-17 0.0000000e+0 -1.00000000
vn 4.2449009e-17 0.0000000e+0 -1.00000000
vn 0.38268343 0.0000000e+0 -0.92387953
vn 0.38268343 0.0000000e+0 -0.92387953
vn 0.0000000e+0 1.00000000 0.0000000e+0
vn 0.0000000e+0 1.00000000 0.0000000e+0
vn 0.0000000e+0 1.00000000 0.0000000e+0
vn 0.38268343 0.0000000e+0 -0.92387953
vn 0.38268343 0.0000000e+0 -0.92387953
vn 0.0000000e+0 1.00000000 0.0000000e+0
vn 0.0000000e+0 1.00000000 0.0000000e+0
vn 0.0000000e+0 1.00000000 0.0000000e+0
vn 0.70710678 0.0000000e+0 -0.70710678
vn 0.70710678 0.0000000e+0 -0.70710678
vn 0.92387953 0.0000000e+0 -0.38268343
vn 0.92387953 0.0000000e+0 -0.38268343
vn 0.0000000e+0 1.00000000 0.0000000e+0
vn 0.0000000e+0 1.00000000 0.0000000e+0
vn 0.0000000e+0 1.00000000 0.0000000e+0
vn 0.92387953 0.0000000e+0 -0.38268343
vn 0.92387953 0.0000000e+0 -0.38268343
vn 0.0000000e+0 1.00000000 0.0000000e+0
vn 1.00000000 0.0000000e+0 0.0000000e+0
vn 1.00000000 0.0000000e+0 0.0000000e+0
vn 0.92387953 0.0000000e+0 0.38268343
vn 0.92387953 0.0000000e+0 0.38268343
vn 0.0000000e+0 1.00000000 0.0000000e+0
vn 0.0000000e+0 1.00000000 0.0000000e+0
vn 0.92387953 0.0000000e+0 0.38268343
vn 0.92387953 0.0000000e+0 0.38268343
vn 0.0000000e+0 1.00000000 0.0000000e+0
vn 0.0000000e+0 1.00000000 0.0000000e+0
vn 0.0000000e+0 1.00000000 0.0000000e+0
vn 0.70710678 0.0000000e+0 0.70710678
vn 0.70710678 0.0000000e+0 0.70710678
vn 0.38268343 0.0000000e+0 0.92387953
vn 0.38268343 0.0000000e+0 0.92387953
vn 0.0000000e+0 1.00000000 0.0000000e+0
vn 0.0000000e+0 1.00000000 0.0000000e+0
vn 0.0000000e+0 1.00000000 0.0000000e+0
vn 0.38268343 0.0000000e+0 0.92387953
vn 0.38268343 0.0000000e+0 0.92387953
vn 0.0000000e+0 1.00000000 0.0000000e+0
vn 0.0000000e+0 1.00000000 0.0000000e+0
vn 0.0000000e+0 1.00000000 0.0000000e+0
vn 0.0000000e+0 0.0000000e+0 1.00000000
vn 0.0000000e+0 0.0000000e+0 1.00000000
vn -0.38268343 0.0000000e+0 0.92387953
vn -0.38268343 0.0000000e+0 0.92387953
vn 0.0000000e+0 1.00000000 1.6355130e-16
vn 0.0000000e+0 1.00000000 1.6355130e-16
vn 0.0000000e+0 1.00000000 1.6355130e-16
vn -0.38268343 0.0000000e+0 0.92387953
vn -0.38268343 0.0000000e+0 0.92387953
vn 0.0000000e+0 1.00000000 0.0000000e+0
vn 0.0000000e+0 1.00000000 0.0000000e+0
vn 0.0000000e+0 1.00000000 0.0000000e+0
vn -0.70710678 0.0000000e+0 0.70710678
vn -0.70710678 0.0000000e+0 0.70710678
vn 0.0000000e+0 1.00000000 0.0000000e+0
vn -0.92387953 0.0000000e+0 0.38268343
vn -0.92387953 0.0000000e+0 0.38268343
vn 0.0000000e+0 1.00000000 0.0000000e+0
vn 0.0000000e+0 1.00000000 0.0000000e+0
vn -0.92387953 0.0000000e+0 0.38268343
vn -0.92387953 0.0000000e+0 0.38268343
vn -1.00000000 0.0000000e+0 3.5374174e-16
vn -1.00000000 0.0000000e+0 3.5374174e-16
vn 0.0000000e+0 -1.00000000 0.0000000e+0
vn -1.00000000 0.0000000e+0 3.5374174e-16
vn -1.00000000 0.0000000e+0 3.5374174e-16
vn -0.92387953 0.0000000e+0 -0.38268343
vn -0.92387953 0.0000000e+0 -0.38268343
vn 0.0000000e+0 -1.00000000 0.0000000e+0
vn 0.0000000e+0 -1.00000000 0.0000000e+0
vn 0.0000000e+0 -1.00000000 0.0000000e+0
vn -0.70710678 0.0000000e+0 -0.70710678
vn -0.70710678 0.0000000e+0 -0.70710678
vn 0.0000000e+0 -1.00000000 0.0000000e+0
vn 0.0000000e+0 -1.00000000 0.0000000e+0
vn 0.0000000e+0 -1.00000000 0.0000000e+0
vn -0.70710678 0.0000000e+0 -0.70710678
vn -0.70710678 0.0000000e+0 -0.70710678
vn -0.38268343 0.0000000e+0 -0.92387953
vn -0.38268343 0.0000000e+0 -0.92387953
vn 0.0000000e+0 -1.00000000 1.6355130e-16
vn 0.0000000e+0 -1.00000000 1.6355130e-16
vn 0.0000000e+0 -1.00000000 1.6355130e-16
vn 4.2449009e-17 0.0000000e+0 -1.00000000
vn 4.2449009e-17 0.0000000e+0 -1.00000000
vn 0.0000000e+0 -1.00000000 0.0000000e+0
vn 0.0000000e+0 -1.00000000 0.0000000e+0
vn 0.0000000e+0 -1.00000000 0.0000000e+0
vn 4.2449009e-17 0.0000000e+0 -1.00000000
vn 4.2449009e-17 0.0000000e+0 -1.00000000
vn 0.38268343 0.0000000e+0 -0.92387953
vn 0.38268343 0.0000000e+0 -0.92387953
vn 0.0000000e+0 -1.00000000 0.0000000e+0
vn 0.0000000e+0 -1.00000000 0.0000000e+0
vn 0.0000000e+0 -1.00000000 0.0000000e+0
vn 0.70710678 0.0000000e+0 -0.70710678
vn 0.70710678 0.0000000e+0 -0.70710678
vn 0.0000000e+0 -1.00000000 0.0000000e+0
vn 0.0000000e+0 -1.00000000 0.0000000e+0
vn 0.0000000e+0 -1.00000000 0.0000000e+0
vn 0.70710678 0.0000000e+0 -0.70710678
vn 0.70710678 0.0000000e+0 -0.70710678
vn 0.0000000e+0 -1.00000000 0.0000000e+0
vn 0.92387953 0.0000000e+0 -0.38268343
vn 0.92387953 0.0000000e+0 -0.38268343
vn 0.0000000e+0 -1.00000000 0.0000000e+0
vn 0.0000000e+0 -1.00000000 0.0000000e+0
vn 1.00000000 0.0000000e+0 0.0000000e+0
vn 1.00000000 0.0000000e+0 0.0000000e+0
vn 1.00000000 0.0000000e+0 0.0000000e+0
vn 1.00000000 0.0000000e+0 0.0000000e+0
vn 0.0000000e+0 -1.00000000 0.0000000e+0
vn 0.92387953 0.0000000e+0 0.38268343
vn 0.92387953 0.0000000e+0 0.38268343
vn 0.0000000e+0 -1.00000000 0.0000000e+0
vn 0.0000000e+0 -1.00000000 0.0000000e+0
vn 0.70710678 0.0000000e+0 0.70710678
vn 0.70710678 0.0000000e+0 0.70710678
vn 0.0000000e+0 -1.00000000 0.0000000e+0
vn 0.0000000e+0 -1.00000000 0.0000000e+0
vn 0.0000000e+0 -1.00000000 0.0000000e+0
vn 0.70710678 0.0000000e+0 0.70710678
vn 0.70710678 0.0000000e+0 0.70710678
vn 0.38268343 0.0000000e+0 0.92387953
vn 0.38268343 0.0000000e+0 0.92387953
vn 0.0000000e+0 -1.00000000 0.0000000e+0
vn 0.0000000e+0 -1.00000000 0.0000000e+0
vn 0.0000000e+0 -1.00000000 0.0000000e+0
vn 0.0000000e+0 0.0000000e+0 1.00000000
vn 0.0000000e+0 0.0000000e+0 1.00000000
vn 0.0000000e+0 -1.00000000 1.6355130e-16
vn 0.0000000e+0 -1.00000000 1.6355130e-16
vn 0.0000000e+0 -1.00000000 1.6355130e-16
vn 0.0000000e+0 0.0000000e+0 1.00000000
vn 0.0000000e+0 0.0000000e+0 1.00000000
vn -0.38268343 0.0000000e+0 0.92387953
vn -0.38268343 0.0000000e+0 0.92387953
vn 0.0000000e+0 -1.00000000 1.6355130e-16
vn 0.0000000e+0 -1.00000000 1.6355130e-16
vn 0.0000000e+0 -1.00000000 1.6355130e-16
vn -0.70710678 0.0000000e+0 0.70710678
vn -0.70710678 0.0000000e+0 0.70710678
vn 0.0000000e+0 -1.00000000 0.0000000e+0
vn 0.0000000e+0 -1.00000000 0.0000000e+0
vn 0.0000000e+0 -1.00000000 0.0000000e+0
vn -0.70710678 0.0000000e+0 0.70710678
vn -0.70710678 0.0000000e+0 0.70710678
vn -0.92387953 0.0000000e+0 0.38268343
vn -0.92387953 0.0000000e+0 0.38268343
vn 0.0000000e+0 -1.00000000 0.0000000e+0
vn 0.0000000e+0 -1.00000000 0.0000000e+0
g Solar Array_WALKER_SOLARCELL
usemtl WALKER_SOLARCELL
s 3
f 2//9 5//24 1//3
f 6//26 5//21 2//6
f 10//45 13//60 9//39
f 14//62 13//57 10//42
g Solar Array_WALKER_WHITE
usemtl WALKER_WHITE
s 1
f 1//2 5//23 4//18
f 2//5 7//29 6//25
f 3//12 7//33 2//8
f 4//15 5//19 8//35
f 9//38 13//59 12//54
f 10//41 15//65 14//61
f 11//48 15//69 10//44
f 12//51 13//55 16//71
f 17//73 32//156 18//76
f 18//79 32//160 19//84
f 19//82 31//152 20//91
f 20//89 30//147 21//96
f 21//94 29//140 22//103
f 22//101 28//135 23//108
f 23//106 27//128 24//115
f 24//113 26//123 25//118
f 26//124 24//114 27//127
f 27//129 23//107 28//134
f 28//136 22//102 29//139
f 29//141 21//95 30//146
f 30//148 20//90 31//151
f 31//153 19//83 32//159
f 34//172 48//252 33//165
f 35//177 47//245 34//170
f 36//184 46//240 35//175
f 37//189 45//233 36//182
f 38//196 44//228 37//187
f 39//201 43//221 38//194
f 40//207 42//216 39//199
f 41//208 42//213 40//204
f 43//220 39//200 42//217
f 44//227 38//195 43//222
f 45//232 37//188 44//229
f 46//239 36//183 45//234
f 47//244 35//176 46//241
f 48//251 34//171 47//246
s 2
f 1//1 4//16 2//7
f 2//4 4//13 3//10
f 5//20 7//30 8//36
f 6//27 7//32 5//22
f 9//37 12//52 10//43
f 10//40 12//49 11//46
f 13//56 15//66 16//72
f 14//63 15//68 13//58
f 17//74 33//166 32//161
f 18//80 33//167 17//75
f 18//77 35//174 34//168
f 19//85 35//178 18//81
f 20//92 35//179 19//86
f 20//87 37//186 36//180
f 21//97 37//190 20//93
f 22//104 37//191 21//98
f 22//99 39//198 38//192
f 23//109 39//202 22//105
f 24//116 39//203 23//110
f 24//111 41//210 40//205
f 25//119 41//211 24//117
f 26//125 41//212 25//120
f 26//121 43//219 42//214
f 27//130 43//223 26//126
f 28//137 43//224 27//131
f 28//132 45//231 44//225
f 29//142 45//235 28//138
f 30//149 45//236 29//143
f 30//144 47//243 46//237
f 31//154 47//247 30//150
f 32//157 33//163 48//249
f 32//162 47//248 31//155
f 34//169 33//164 18//78
f 36//181 35//173 20//88
f 38//193 37//185 22//100
f 40//206 39//197 24//112
f 42//215 41//209 26//122
f 44//226 43//218 28//133
f 46//238 45//230 30//145
f 48//250 47//242 32//158
s 3
f 4//17 7//31 3//11
f 8//34 7//28 4//14
f 12//53 15//67 11//47
f 16//70 15//64 12//50
