# Nv = 147  Nvt = 0  Nvn = 221  Npoly = 286
# Exported from Wings 3D 1.4.1
mtllib Rover.mtl
o Lower Leg
#147 vertices, 286 faces
v -0.11673511 -4.2517007e-3 -4.2520374e-3
v -0.10912307 -4.2520044e-2 -4.2520374e-3
v -8.7445792e-2 -7.4962379e-2 -4.2520374e-3
v -5.5003458e-2 -9.6639654e-2 -4.2520374e-3
v -1.6735114e-2 -0.10425170 -4.2520374e-3
v 2.1533229e-2 -9.6639654e-2 -4.2520374e-3
v 5.3975564e-2 -7.4962379e-2 -4.2520374e-3
v 7.5652839e-2 -4.2520044e-2 -4.2520374e-3
v 8.3264886e-2 -4.2517007e-3 -4.2520374e-3
v 7.5652839e-2 3.4016643e-2 -4.2520374e-3
v 5.3975564e-2 6.6458977e-2 -4.2520374e-3
v 2.1533229e-2 8.8136253e-2 -4.2520374e-3
v -1.6735114e-2 9.5748299e-2 -4.2520374e-3
v -5.5003458e-2 8.8136253e-2 -4.2520374e-3
v -8.7445792e-2 6.6458977e-2 -4.2520374e-3
v -0.10912307 3.4016643e-2 -4.2520374e-3
v -0.11673511 -4.2517007e-3 0.99574796
v -0.10912307 -4.2520044e-2 0.99574796
v -8.7445792e-2 -7.4962379e-2 0.99574796
v -5.5003458e-2 -9.6639654e-2 0.99574796
v -1.6735114e-2 -0.10425170 0.99574796
v 2.1533229e-2 -9.6639654e-2 0.99574796
v 5.3975564e-2 -7.4962379e-2 0.99574796
v 7.5652839e-2 -4.2520044e-2 0.99574796
v 8.3264886e-2 -4.2517007e-3 0.99574796
v 7.5652839e-2 3.4016643e-2 0.99574796
v 5.3975564e-2 6.6458977e-2 0.99574796
v 2.1533229e-2 8.8136253e-2 0.99574796
v -1.6735114e-2 9.5748299e-2 0.99574796
v -5.5003458e-2 8.8136253e-2 0.99574796
v -8.7445792e-2 6.6458977e-2 0.99574796
v -0.10912307 3.4016643e-2 0.99574796
v -1.6735114e-2 -4.2517007e-3 2.99574796
v -9.3271801e-2 -4.2517007e-3 -0.18902794
v -8.7445792e-2 -3.3541023e-2 -0.18902794
v -7.0854724e-2 -5.8371311e-2 -0.18902794
v -4.6024436e-2 -7.4962379e-2 -0.18902794
v -1.6735114e-2 -8.0788387e-2 -0.18902794
v 1.2554208e-2 -7.4962379e-2 -0.18902794
v 3.7384496e-2 -5.8371311e-2 -0.18902794
v 5.3975564e-2 -3.3541023e-2 -0.18902794
v 5.9801572e-2 -4.2517007e-3 -0.18902794
v 5.3975564e-2 2.5037621e-2 -0.18902794
v 3.7384496e-2 4.9867909e-2 -0.18902794
v 1.2554208e-2 6.6458977e-2 -0.18902794
v -1.6735114e-2 7.2284986e-2 -0.18902794
v -4.6024436e-2 6.6458977e-2 -0.18902794
v -7.0854724e-2 4.9867909e-2 -0.18902794
v -8.7445792e-2 2.5037621e-2 -0.18902794
v -0.15815647 -4.2517007e-3 -0.14567339
v -0.14739141 -5.8371311e-2 -0.14567339
v -0.11673511 -0.10425170 -0.14567339
v -7.0854724e-2 -0.13490800 -0.14567339
v -1.6735114e-2 -0.14567306 -0.14567339
v 3.7384496e-2 -0.13490800 -0.14567339
v 8.3264886e-2 -0.10425170 -0.14567339
v 0.11392118 -5.8371311e-2 -0.14567339
v 0.12468624 -4.2517007e-3 -0.14567339
v 0.11392118 4.9867909e-2 -0.14567339
v 8.3264886e-2 9.5748299e-2 -0.14567339
v 3.7384496e-2 0.12640460 -0.14567339
v -1.6735114e-2 0.13716966 -0.14567339
v -7.0854724e-2 0.12640460 -0.14567339
v -0.11673511 9.5748299e-2 -0.14567339
v -0.14739141 4.9867909e-2 -0.14567339
v -0.20151102 -4.2517007e-3 -8.0788724e-2
v -0.18744579 -7.4962379e-2 -8.0788724e-2
v -0.14739141 -0.13490800 -8.0788724e-2
v -8.7445792e-2 -0.17496238 -8.0788724e-2
v -1.6735114e-2 -0.18902761 -8.0788724e-2
v 5.3975564e-2 -0.17496238 -8.0788724e-2
v 0.11392118 -0.13490800 -8.0788724e-2
v 0.15397556 -7.4962379e-2 -8.0788724e-2
v 0.16804079 -4.2517007e-3 -8.0788724e-2
v 0.15397556 6.6458977e-2 -8.0788724e-2
v 0.11392118 0.12640460 -8.0788724e-2
v 5.3975564e-2 0.16645898 -8.0788724e-2
v -1.6735114e-2 0.18052421 -8.0788724e-2
v -8.7445792e-2 0.16645898 -8.0788724e-2
v -0.14739141 0.12640460 -8.0788724e-2
v -0.18744579 6.6458977e-2 -8.0788724e-2
v -0.21673511 -4.2517007e-3 -4.2520374e-3
v -0.20151102 -8.0788387e-2 -4.2520374e-3
v -0.15815647 -0.14567306 -4.2520374e-3
v -9.3271801e-2 -0.18902761 -4.2520374e-3
v -1.6735114e-2 -0.20425170 -4.2520374e-3
v 5.9801572e-2 -0.18902761 -4.2520374e-3
v 0.12468624 -0.14567306 -4.2520374e-3
v 0.16804079 -8.0788387e-2 -4.2520374e-3
v 0.18326489 -4.2517007e-3 -4.2520374e-3
v 0.16804079 7.2284986e-2 -4.2520374e-3
v 0.12468624 0.13716966 -4.2520374e-3
v 5.9801572e-2 0.18052421 -4.2520374e-3
v -1.6735114e-2 0.19574830 -4.2520374e-3
v -9.3271801e-2 0.18052421 -4.2520374e-3
v -0.15815647 0.13716966 -4.2520374e-3
v -0.20151102 7.2284986e-2 -4.2520374e-3
v -0.20151102 -4.2517007e-3 7.2284649e-2
v -0.18744579 -7.4962379e-2 7.2284649e-2
v -0.14739141 -0.13490800 7.2284649e-2
v -8.7445792e-2 -0.17496238 7.2284649e-2
v -1.6735114e-2 -0.18902761 7.2284649e-2
v 5.3975564e-2 -0.17496238 7.2284649e-2
v 0.11392118 -0.13490800 7.2284649e-2
v 0.15397556 -7.4962379e-2 7.2284649e-2
v 0.16804079 -4.2517007e-3 7.2284649e-2
v 0.15397556 6.6458977e-2 7.2284649e-2
v 0.11392118 0.12640460 7.2284649e-2
v 5.3975564e-2 0.16645898 7.2284649e-2
v -1.6735114e-2 0.18052421 7.2284649e-2
v -8.7445792e-2 0.16645898 7.2284649e-2
v -0.14739141 0.12640460 7.2284649e-2
v -0.18744579 6.6458977e-2 7.2284649e-2
v -0.15815647 -4.2517007e-3 0.13716932
v -0.14739141 -5.8371311e-2 0.13716932
v -0.11673511 -0.10425170 0.13716932
v -7.0854724e-2 -0.13490800 0.13716932
v -1.6735114e-2 -0.14567306 0.13716932
v 3.7384496e-2 -0.13490800 0.13716932
v 8.3264886e-2 -0.10425170 0.13716932
v 0.11392118 -5.8371311e-2 0.13716932
v 0.12468624 -4.2517007e-3 0.13716932
v 0.11392118 4.9867909e-2 0.13716932
v 8.3264886e-2 9.5748299e-2 0.13716932
v 3.7384496e-2 0.12640460 0.13716932
v -1.6735114e-2 0.13716966 0.13716932
v -7.0854724e-2 0.12640460 0.13716932
v -0.11673511 9.5748299e-2 0.13716932
v -0.14739141 4.9867909e-2 0.13716932
v -9.3271801e-2 -4.2517007e-3 0.18052387
v -8.7445792e-2 -3.3541023e-2 0.18052387
v -7.0854724e-2 -5.8371311e-2 0.18052387
v -4.6024436e-2 -7.4962379e-2 0.18052387
v -1.6735114e-2 -8.0788387e-2 0.18052387
v 1.2554208e-2 -7.4962379e-2 0.18052387
v 3.7384496e-2 -5.8371311e-2 0.18052387
v 5.3975564e-2 -3.3541023e-2 0.18052387
v 5.9801572e-2 -4.2517007e-3 0.18052387
v 5.3975564e-2 2.5037621e-2 0.18052387
v 3.7384496e-2 4.9867909e-2 0.18052387
v 1.2554208e-2 6.6458977e-2 0.18052387
v -1.6735114e-2 7.2284986e-2 0.18052387
v -4.6024436e-2 6.6458977e-2 0.18052387
v -7.0854724e-2 4.9867909e-2 0.18052387
v -8.7445792e-2 2.5037621e-2 0.18052387
v -1.6735114e-2 -4.2517007e-3 -0.20425204
v -1.6735114e-2 -4.2517007e-3 0.19574796
vn -0.99986136 -4.0808885e-15 1.6651016e-2
vn -0.92359130 -0.38256404 2.4977193e-2
vn -0.70700875 -0.70700875 1.6651016e-2
vn -0.38256404 -0.92359130 2.4977193e-2
vn 3.3024531e-17 -0.99986136 1.6651016e-2
vn 0.38256404 -0.92359130 2.4977193e-2
vn 0.70700875 -0.70700875 1.6651016e-2
vn 0.92359130 -0.38256404 2.4977193e-2
vn 0.99986136 -4.4300050e-15 1.6651016e-2
vn 0.92359130 0.38256404 2.4977193e-2
vn 0.70700875 0.70700875 1.6651016e-2
vn 0.38256404 0.92359130 2.4977193e-2
vn 9.4355804e-18 0.99986136 1.6651016e-2
vn -0.38256404 0.92359130 2.4977193e-2
vn -0.70700875 0.70700875 1.6651016e-2
vn -0.92359130 0.38256404 2.4977193e-2
vn 0.0000000e+0 3.8604185e-15 1.00000000
vn -0.44254783 -9.2878091e-16 -0.89674490
vn -0.35310199 -0.14625963 -0.92408176
vn -0.31292857 -0.31292857 -0.89674490
vn -0.14625963 -0.35310199 -0.92408176
vn -7.0899306e-18 -0.44254783 -0.89674490
vn 0.14625963 -0.35310199 -0.92408176
vn 0.31292857 -0.31292857 -0.89674490
vn 0.35310199 -0.14625963 -0.92408176
vn 0.44254783 -1.0209500e-15 -0.89674490
vn 0.35310199 0.14625963 -0.92408176
vn 0.31292857 0.31292857 -0.89674490
vn 0.14625963 0.35310199 -0.92408176
vn -2.3633102e-18 0.44254783 -0.89674490
vn -0.14625963 0.35310199 -0.92408176
vn -0.31292857 0.31292857 -0.89674490
vn -0.35310199 0.14625963 -0.92408176
vn -0.70658450 -8.2874153e-16 -0.70762868
vn -0.65279895 -0.27039818 -0.70762868
vn -0.49963069 -0.49963069 -0.70762868
vn -0.27039818 -0.65279895 -0.70762868
vn -1.4288647e-17 -0.70658450 -0.70762868
vn 0.27039818 -0.65279895 -0.70762868
vn 0.49963069 -0.49963069 -0.70762868
vn 0.65279895 -0.27039818 -0.70762868
vn 0.70658450 -1.1359474e-15 -0.70762868
vn 0.65279895 0.27039818 -0.70762868
vn 0.49963069 0.49963069 -0.70762868
vn 0.27039818 0.65279895 -0.70762868
vn 2.8577294e-17 0.70658450 -0.70762868
vn -0.27039818 0.65279895 -0.70762868
vn -0.49963069 0.49963069 -0.70762868
vn -0.65279895 0.27039818 -0.70762868
vn -0.92368212 -1.0748346e-15 -0.38315969
vn -0.85337100 -0.35347784 -0.38315969
vn -0.65314189 -0.65314189 -0.38315969
vn -0.35347784 -0.85337100 -0.38315969
vn -1.4379058e-17 -0.92368212 -0.38315969
vn 0.35347784 -0.85337100 -0.38315969
vn 0.65314189 -0.65314189 -0.38315969
vn 0.85337100 -0.35347784 -0.38315969
vn 0.92368212 -8.8071728e-16 -0.38315969
vn 0.85337100 0.35347784 -0.38315969
vn 0.65314189 0.65314189 -0.38315969
vn 0.35347784 0.85337100 -0.38315969
vn -1.4379058e-17 0.92368212 -0.38315969
vn -0.35347784 0.85337100 -0.38315969
vn -0.65314189 0.65314189 -0.38315969
vn -0.85337100 0.35347784 -0.38315969
vn -1.00000000 -8.2173623e-16 -1.4416425e-17
vn -0.92387953 -0.38268343 1.8020531e-17
vn -0.70710678 -0.70710678 7.9290338e-17
vn -0.38268343 -0.92387953 8.6498551e-17
vn -7.2082126e-18 -1.00000000 -1.4416425e-17
vn 0.38268343 -0.92387953 1.1172729e-16
vn 0.70710678 -0.70710678 7.2082126e-18
vn 0.92387953 -0.38268343 0.0000000e+0
vn 1.00000000 0.0000000e+0 0.0000000e+0
vn 0.92387953 0.38268343 3.6041063e-18
vn 0.70710678 0.70710678 7.2082126e-17
vn 0.38268343 0.92387953 8.2894444e-17
vn -1.4416425e-17 1.00000000 -1.2974783e-16
vn -0.38268343 0.92387953 5.7665700e-17
vn -0.70710678 0.70710678 8.6498551e-17
vn -0.92387953 0.38268343 0.0000000e+0
vn -0.92368212 -9.4182828e-16 0.38315969
vn -0.85337100 -0.35347784 0.38315969
vn -0.65314189 -0.65314189 0.38315969
vn -0.35347784 -0.85337100 0.38315969
vn 3.5947644e-18 -0.92368212 0.38315969
vn 0.35347784 -0.85337100 0.38315969
vn 0.65314189 -0.65314189 0.38315969
vn 0.85337100 -0.35347784 0.38315969
vn 0.92368212 -8.6633822e-16 0.38315969
vn 0.85337100 0.35347784 0.38315969
vn 0.65314189 0.65314189 0.38315969
vn 0.35347784 0.85337100 0.38315969
vn 7.1895288e-18 0.92368212 0.38315969
vn -0.35347784 0.85337100 0.38315969
vn -0.65314189 0.65314189 0.38315969
vn -0.85337100 0.35347784 0.38315969
vn -0.70658450 -9.1447341e-16 0.70762868
vn -0.65279895 -0.27039818 0.70762868
vn -0.49963069 -0.49963069 0.70762868
vn -0.27039818 -0.65279895 0.70762868
vn 1.7860809e-17 -0.70658450 0.70762868
vn 0.27039818 -0.65279895 0.70762868
vn 0.49963069 -0.49963069 0.70762868
vn 0.65279895 -0.27039818 0.70762868
vn 0.70658450 -1.1073701e-15 0.70762868
vn 0.65279895 0.27039818 0.70762868
vn 0.49963069 0.49963069 0.70762868
vn 0.27039818 0.65279895 0.70762868
vn 0.0000000e+0 0.70658450 0.70762868
vn -0.27039818 0.65279895 0.70762868
vn -0.49963069 0.49963069 0.70762868
vn -0.65279895 0.27039818 0.70762868
vn -0.44254783 -8.8387801e-16 0.89674490
vn -0.35310199 -0.14625963 0.92408176
vn -0.31292857 -0.31292857 0.89674490
vn -0.14625963 -0.35310199 0.92408176
vn 9.4532408e-18 -0.44254783 0.89674490
vn 0.14625963 -0.35310199 0.92408176
vn 0.31292857 -0.31292857 0.89674490
vn 0.35310199 -0.14625963 0.92408176
vn 0.44254783 -1.0374932e-15 0.89674490
vn 0.35310199 0.14625963 0.92408176
vn 0.31292857 0.31292857 0.89674490
vn 0.14625963 0.35310199 0.92408176
vn 0.0000000e+0 0.44254783 0.89674490
vn -0.14625963 0.35310199 0.92408176
vn -0.31292857 0.31292857 0.89674490
vn -0.35310199 0.14625963 0.92408176
vn -2.4780559e-17 -4.5003266e-16 -1.00000000
vn -3.5400799e-18 -4.3941242e-16 1.00000000
vn 4.5629405e-15 2.7018912e-16 -1.00000000
vn 4.5629405e-15 2.7018912e-16 -1.00000000
vn 4.5629405e-15 2.7018912e-16 -1.00000000
vn -1.00000000 -4.0892546e-15 -1.2395061e-16
vn -1.00000000 -4.0892546e-15 -1.2395061e-16
vn -0.92387953 -0.38268343 -1.1474285e-16
vn -0.92387953 -0.38268343 -1.1474285e-16
vn 4.6832650e-15 1.0463371e-15 -1.00000000
vn 4.6832650e-15 1.0463371e-15 -1.00000000
vn 4.6832650e-15 1.0463371e-15 -1.00000000
vn -0.92387953 -0.38268343 -1.1474285e-16
vn -0.92387953 -0.38268343 -1.1474285e-16
vn 5.7884468e-15 2.8048737e-15 -1.00000000
vn 5.7884468e-15 2.8048737e-15 -1.00000000
vn 5.7884468e-15 2.8048737e-15 -1.00000000
vn -0.70710678 -0.70710678 -8.4994704e-17
vn -0.70710678 -0.70710678 -8.4994704e-17
vn -0.38268343 -0.92387953 -4.5330509e-17
vn -0.38268343 -0.92387953 -4.5330509e-17
vn 9.8259230e-15 -2.2102868e-14 -1.00000000
vn 9.8259230e-15 -2.2102868e-14 -1.00000000
vn 9.8259230e-15 -2.2102868e-14 -1.00000000
vn -0.38268343 -0.92387953 -4.5330509e-17
vn -0.38268343 -0.92387953 -4.5330509e-17
vn 1.1584533e-14 -5.8340316e-14 -1.00000000
vn 4.2449009e-17 -1.00000000 3.1418578e-33
vn 4.2449009e-17 -1.00000000 3.1418578e-33
vn 0.38268343 -0.92387953 4.5330509e-17
vn 0.38268343 -0.92387953 4.5330509e-17
vn 1.1600118e-14 -3.7853921e-14 -1.00000000
vn 1.1600118e-14 -3.7853921e-14 -1.00000000
vn 0.38268343 -0.92387953 4.5330509e-17
vn 0.38268343 -0.92387953 4.5330509e-17
vn 8.0596992e-15 -4.0548993e-15 -1.00000000
vn 8.0596992e-15 -4.0548993e-15 -1.00000000
vn 8.0596992e-15 -4.0548993e-15 -1.00000000
vn 0.70710678 -0.70710678 7.3662077e-17
vn 0.70710678 -0.70710678 7.3662077e-17
vn 0.92387953 -0.38268343 1.1474285e-16
vn 0.92387953 -0.38268343 1.1474285e-16
vn 5.2982278e-15 -6.4691532e-16 -1.00000000
vn 5.2982278e-15 -6.4691532e-16 -1.00000000
vn 5.2982278e-15 -6.4691532e-16 -1.00000000
vn 0.92387953 -0.38268343 1.1474285e-16
vn 0.92387953 -0.38268343 1.1474285e-16
vn 4.5629405e-15 2.7018912e-16 -1.00000000
vn 4.5629405e-15 2.7018912e-16 -1.00000000
vn 4.5629405e-15 2.7018912e-16 -1.00000000
vn 1.00000000 -4.4429963e-15 1.2465890e-16
vn 1.00000000 -4.4429963e-15 1.2465890e-16
vn 4.6832650e-15 1.0463371e-15 -1.00000000
vn 0.92387953 0.38268343 2.3922468e-16
vn 0.92387953 0.38268343 2.3922468e-16
vn 4.6832650e-15 1.0463371e-15 -1.00000000
vn 4.6832650e-15 1.0463371e-15 -1.00000000
vn 0.92387953 0.38268343 2.3922468e-16
vn 0.92387953 0.38268343 2.3922468e-16
vn 5.7913940e-15 2.8048737e-15 -1.00000000
vn 5.7913940e-15 2.8048737e-15 -1.00000000
vn 5.7913940e-15 2.8048737e-15 -1.00000000
vn 0.70710678 0.70710678 7.1962183e-16
vn 0.70710678 0.70710678 7.1962183e-16
vn 0.38268343 0.92387953 2.4365149e-16
vn 0.38268343 0.92387953 2.4365149e-16
vn 9.8234245e-15 1.6790676e-14 -1.00000000
vn 9.8234245e-15 1.6790676e-14 -1.00000000
vn 9.8234245e-15 1.6790676e-14 -1.00000000
vn 0.38268343 0.92387953 2.4365149e-16
vn 0.38268343 0.92387953 2.4365149e-16
vn 1.1584533e-14 5.8340316e-14 -1.00000000
vn 1.4149670e-17 1.00000000 1.5709289e-33
vn 1.4149670e-17 1.00000000 1.5709289e-33
vn -0.38268343 0.92387953 1.3599153e-16
vn -0.38268343 0.92387953 1.3599153e-16
vn 1.1591950e-14 2.0486394e-14 -1.00000000
vn 1.1591950e-14 2.0486394e-14 -1.00000000
vn -0.38268343 0.92387953 1.3599153e-16
vn -0.38268343 0.92387953 1.3599153e-16
vn 8.0572007e-15 -4.0548993e-15 -1.00000000
vn 8.0572007e-15 -4.0548993e-15 -1.00000000
vn 8.0572007e-15 -4.0548993e-15 -1.00000000
vn -0.70710678 0.70710678 5.3829979e-16
vn -0.70710678 0.70710678 5.3829979e-16
vn 5.2982278e-15 -6.4691532e-16 -1.00000000
vn -0.92387953 0.38268343 1.0093121e-17
vn -0.92387953 0.38268343 1.0093121e-17
vn 5.2982278e-15 -6.4691532e-16 -1.00000000
vn 5.2982278e-15 -6.4691532e-16 -1.00000000
vn -0.92387953 0.38268343 1.0093121e-17
vn -0.92387953 0.38268343 1.0093121e-17
g Lower Leg_WALKER_LEG
usemtl WALKER_LEG
s 1
f 1//134 9//178 2//140
f 2//139 8//173 3//146
f 3//144 7//166 4//153
f 4//151 6//161 5//156
f 6//162 4//152 7//165
f 7//167 3//145 8//172
f 8//174 2//141 9//179
f 9//177 1//133 10//185
f 10//186 16//219 11//190
f 11//191 15//212 12//197
f 12//198 14//207 13//201
f 14//206 12//196 15//211
f 15//210 11//189 16//218
f 16//215 10//182 1//132
f 34//18 51//35 50//34
f 34//18 65//49 49//33
f 34//18 146//130 35//19
f 35//19 51//35 34//18
f 35//19 146//130 36//20
f 36//20 51//35 35//19
f 36//20 53//37 52//36
f 36//20 146//130 37//21
f 37//21 53//37 36//20
f 37//21 146//130 38//22
f 38//22 53//37 37//21
f 38//22 55//39 54//38
f 38//22 146//130 39//23
f 39//23 55//39 38//22
f 39//23 146//130 40//24
f 40//24 55//39 39//23
f 40//24 57//41 56//40
f 40//24 146//130 41//25
f 41//25 57//41 40//24
f 41//25 146//130 42//26
f 42//26 57//41 41//25
f 42//26 59//43 58//42
f 42//26 146//130 43//27
f 43//27 59//43 42//26
f 43//27 146//130 44//28
f 44//28 59//43 43//27
f 44//28 61//45 60//44
f 44//28 146//130 45//29
f 45//29 61//45 44//28
f 45//29 146//130 46//30
f 46//30 61//45 45//29
f 46//30 63//47 62//46
f 46//30 146//130 47//31
f 47//31 63//47 46//30
f 47//31 146//130 48//32
f 48//32 63//47 47//31
f 48//32 65//49 64//48
f 48//32 146//130 49//33
f 49//33 65//49 48//32
f 49//33 146//130 34//18
f 50//34 65//49 34//18
f 50//34 66//50 65//49
f 51//35 66//50 50//34
f 51//35 68//52 67//51
f 52//36 51//35 36//20
f 52//36 68//52 51//35
f 53//37 68//52 52//36
f 53//37 70//54 69//53
f 54//38 53//37 38//22
f 54//38 70//54 53//37
f 55//39 70//54 54//38
f 55//39 72//56 71//55
f 56//40 55//39 40//24
f 56//40 72//56 55//39
f 57//41 72//56 56//40
f 57//41 74//58 73//57
f 58//42 57//41 42//26
f 58//42 74//58 57//41
f 59//43 74//58 58//42
f 59//43 76//60 75//59
f 60//44 59//43 44//28
f 60//44 76//60 59//43
f 61//45 76//60 60//44
f 61//45 78//62 77//61
f 62//46 61//45 46//30
f 62//46 78//62 61//45
f 63//47 78//62 62//46
f 63//47 80//64 79//63
f 64//48 63//47 48//32
f 64//48 80//64 63//47
f 65//49 66//50 81//65
f 65//49 80//64 64//48
f 66//50 83//67 82//66
f 66//50 97//81 81//65
f 67//51 66//50 51//35
f 67//51 83//67 66//50
f 68//52 83//67 67//51
f 68//52 85//69 84//68
f 69//53 68//52 53//37
f 69//53 85//69 68//52
f 70//54 85//69 69//53
f 70//54 87//71 86//70
f 71//55 70//54 55//39
f 71//55 87//71 70//54
f 72//56 87//71 71//55
f 72//56 89//73 88//72
f 73//57 72//56 57//41
f 73//57 89//73 72//56
f 74//58 89//73 73//57
f 74//58 91//75 90//74
f 75//59 74//58 59//43
f 75//59 91//75 74//58
f 76//60 91//75 75//59
f 76//60 93//77 92//76
f 77//61 76//60 61//45
f 77//61 93//77 76//60
f 78//62 93//77 77//61
f 78//62 95//79 94//78
f 79//63 78//62 63//47
f 79//63 95//79 78//62
f 80//64 95//79 79//63
f 80//64 97//81 96//80
f 81//65 80//64 65//49
f 81//65 97//81 80//64
f 82//66 97//81 66//50
f 82//66 98//82 97//81
f 83//67 98//82 82//66
f 83//67 100//84 99//83
f 84//68 83//67 68//52
f 84//68 100//84 83//67
f 85//69 100//84 84//68
f 85//69 102//86 101//85
f 86//70 85//69 70//54
f 86//70 102//86 85//69
f 87//71 102//86 86//70
f 87//71 104//88 103//87
f 88//72 87//71 72//56
f 88//72 104//88 87//71
f 89//73 104//88 88//72
f 89//73 106//90 105//89
f 90//74 89//73 74//58
f 90//74 106//90 89//73
f 91//75 106//90 90//74
f 91//75 108//92 107//91
f 92//76 91//75 76//60
f 92//76 108//92 91//75
f 93//77 108//92 92//76
f 93//77 110//94 109//93
f 94//78 93//77 78//62
f 94//78 110//94 93//77
f 95//79 110//94 94//78
f 95//79 112//96 111//95
f 96//80 95//79 80//64
f 96//80 112//96 95//79
f 97//81 98//82 113//97
f 97//81 112//96 96//80
f 98//82 115//99 114//98
f 98//82 129//113 113//97
f 99//83 98//82 83//67
f 99//83 115//99 98//82
f 100//84 115//99 99//83
f 100//84 117//101 116//100
f 101//85 100//84 85//69
f 101//85 117//101 100//84
f 102//86 117//101 101//85
f 102//86 119//103 118//102
f 103//87 102//86 87//71
f 103//87 119//103 102//86
f 104//88 119//103 103//87
f 104//88 121//105 120//104
f 105//89 104//88 89//73
f 105//89 121//105 104//88
f 106//90 121//105 105//89
f 106//90 123//107 122//106
f 107//91 106//90 91//75
f 107//91 123//107 106//90
f 108//92 123//107 107//91
f 108//92 125//109 124//108
f 109//93 108//92 93//77
f 109//93 125//109 108//92
f 110//94 125//109 109//93
f 110//94 127//111 126//110
f 111//95 110//94 95//79
f 111//95 127//111 110//94
f 112//96 127//111 111//95
f 112//96 129//113 128//112
f 113//97 112//96 97//81
f 113//97 129//113 112//96
f 114//98 129//113 98//82
f 114//98 130//114 129//113
f 115//99 130//114 114//98
f 115//99 132//116 131//115
f 116//100 115//99 100//84
f 116//100 132//116 115//99
f 117//101 132//116 116//100
f 117//101 134//118 133//117
f 118//102 117//101 102//86
f 118//102 134//118 117//101
f 119//103 134//118 118//102
f 119//103 136//120 135//119
f 120//104 119//103 104//88
f 120//104 136//120 119//103
f 121//105 136//120 120//104
f 121//105 138//122 137//121
f 122//106 121//105 106//90
f 122//106 138//122 121//105
f 123//107 138//122 122//106
f 123//107 140//124 139//123
f 124//108 123//107 108//92
f 124//108 140//124 123//107
f 125//109 140//124 124//108
f 125//109 142//126 141//125
f 126//110 125//109 110//94
f 126//110 142//126 125//109
f 127//111 142//126 126//110
f 127//111 144//128 143//127
f 128//112 127//111 112//96
f 128//112 144//128 127//111
f 129//113 130//114 145//129
f 129//113 144//128 128//112
f 130//114 147//131 145//129
f 131//115 130//114 115//99
f 131//115 147//131 130//114
f 132//116 147//131 131//115
f 133//117 132//116 117//101
f 133//117 147//131 132//116
f 134//118 147//131 133//117
f 135//119 134//118 119//103
f 135//119 147//131 134//118
f 136//120 147//131 135//119
f 137//121 136//120 121//105
f 137//121 147//131 136//120
f 138//122 147//131 137//121
f 139//123 138//122 123//107
f 139//123 147//131 138//122
f 140//124 147//131 139//123
f 141//125 140//124 125//109
f 141//125 147//131 140//124
f 142//126 147//131 141//125
f 143//127 142//126 127//111
f 143//127 147//131 142//126
f 144//128 147//131 143//127
f 145//129 144//128 129//113
f 145//129 147//131 144//128
s 2
f 1//135 17//1 16//220
f 2//142 17//1 1//136
f 2//137 19//3 18//2
f 3//147 19//3 2//143
f 4//154 19//3 3//148
f 4//149 21//5 20//4
f 5//157 21//5 4//155
f 6//163 21//5 5//158
f 6//159 23//7 22//6
f 7//168 23//7 6//164
f 8//175 23//7 7//169
f 8//170 25//9 24//8
f 9//180 25//9 8//176
f 10//187 25//9 9//181
f 10//183 27//11 26//10
f 11//192 27//11 10//188
f 12//199 27//11 11//193
f 12//194 29//13 28//12
f 13//202 29//13 12//200
f 14//208 29//13 13//203
f 14//204 31//15 30//14
f 15//213 31//15 14//209
f 16//216 17//1 32//16
f 16//221 31//15 15//214
f 17//1 33//17 32//16
f 18//2 17//1 2//138
f 18//2 33//17 17//1
f 19//3 33//17 18//2
f 20//4 19//3 4//150
f 20//4 33//17 19//3
f 21//5 33//17 20//4
f 22//6 21//5 6//160
f 22//6 33//17 21//5
f 23//7 33//17 22//6
f 24//8 23//7 8//171
f 24//8 33//17 23//7
f 25//9 33//17 24//8
f 26//10 25//9 10//184
f 26//10 33//17 25//9
f 27//11 33//17 26//10
f 28//12 27//11 12//195
f 28//12 33//17 27//11
f 29//13 33//17 28//12
f 30//14 29//13 14//205
f 30//14 33//17 29//13
f 31//15 33//17 30//14
f 32//16 31//15 16//217
f 32//16 33//17 31//15
